<?xml version="1.0" encoding="UTF-8"?>
<!DOCTYPE svg PUBLIC "-//W3C//DTD SVG 1.1//EN" "http://www.w3.org/Graphics/SVG/1.1/DTD/svg11.dtd">
<!-- Creator: CorelDRAW -->
<svg xmlns="http://www.w3.org/2000/svg" xml:space="preserve" width="25.3998mm" height="12.6998mm" version="1.1" style="shape-rendering:geometricPrecision; text-rendering:geometricPrecision; image-rendering:optimizeQuality; fill-rule:evenodd; clip-rule:evenodd"
viewBox="0 0 2539.98 1269.98"
 xmlns:xlink="http://www.w3.org/1999/xlink"
 xmlns:xodm="http://www.corel.com/coreldraw/odm/2003">
 <defs>
  <style type="text/css">
   <![CDATA[
    .fil0 {fill:#201E1E}
   ]]>
  </style>
 </defs>
 <g id="Camada_x0020_1">
  <metadata id="CorelCorpID_0Corel-Layer"/>
  <path class="fil0" d="M445.77 775.15c6.73,-1.4 14.69,2.77 16.2,9.77 0.82,4.53 0.24,8.97 -2.09,12.98 -2.8,4.81 -7.58,8.14 -12.54,10.45 -2.01,7.13 -3.69,14.38 -5.27,21.62 -1.87,8.57 -3.56,17.17 -5.22,25.78 -3.74,19.6 -7.26,39.24 -11.18,58.81 -4.06,20.27 -8.5,40.56 -14.04,60.49 -4.94,17.72 -10.91,35.87 -19.02,52.41 10.57,10.87 22.06,23.64 35.9,30.22 7.11,3.38 15.93,6.31 23.89,5.99 5.01,-0.2 10.59,-1.83 12.78,-6.79 1,-2.27 3.63,-3.72 6.09,-3.03l0.23 0.07 0 0.24c0,0.02 0,0.04 0,0.07 2.97,0.8 4.41,3.85 3.14,6.71 -3.34,7.97 -11.3,12.7 -19.38,14.71 -11.58,2.88 -24.26,0.77 -35.24,-3.44 -14.69,-5.64 -27.46,-14.58 -39.46,-24.57 -7.5,10.21 -17.26,19.59 -29.78,22.99 -12.34,3.36 -26.24,2.23 -36.18,-6.46 -10.64,-9.29 -12.58,-23.48 -9.88,-36.71 2.57,-12.43 10.45,-22.05 22.49,-26.15 5.98,-2.04 12.37,-2.49 18.62,-1.74 7.21,0.86 14.18,3.31 20.57,6.76 0.87,0.58 1.89,0.97 2.84,1.42 6.67,-17.18 11.89,-35.2 16.51,-53.02 4.93,-19.08 9.22,-38.34 13.3,-57.62 3.59,-16.92 6.97,-33.9 10.7,-50.8 1.43,-6.47 2.92,-12.96 4.6,-19.38 1.14,-4.33 2.39,-8.85 4.03,-13.04 -5.52,0.68 -11.17,0.62 -16.7,0.47 -5.98,-0.16 -11.96,-0.45 -17.94,-0.27 -11.45,0.34 -22.64,2.42 -30.59,11.36 -6.19,6.98 -9.02,18 -8.47,27.22 0.58,9.4 4.68,18.56 14.15,21.67 3.62,-4.31 8.44,-8.76 13.84,-10.6 3.99,-1.35 8.13,-1.15 11.51,1.53 2.29,1.96 3.22,5 2.74,7.94 -0.52,3.02 -2.41,5.5 -5.1,6.9 2.59,1.48 4.42,3.93 4.74,6.97 0.29,2.94 -0.94,5.78 -3.33,7.53 -3.22,2.5 -7.18,2.64 -10.92,1.32 -5.04,-1.78 -9.39,-5.99 -12.6,-10.15 -15.53,-2.47 -24.54,-14.02 -26.72,-29.05 -1.85,-12.88 1.56,-28.89 10.83,-38.37 11.42,-11.7 25.11,-14.43 40.86,-14.3 6.81,0.05 13.59,0.63 20.41,0.7 5.72,0.07 11.93,-0.23 17.34,-2.28 3.78,-8.57 12.32,-26.89 23.34,-27.33zm1105.71 392.65l171.1 0c1.02,0 1.85,0.83 1.85,1.85l0 7.34c0,1.02 -0.83,1.85 -1.85,1.85l-171.1 0c-1.01,0 -1.84,-0.83 -1.84,-1.85l0 -7.34c0,-1.02 0.83,-1.85 1.84,-1.85zm-723.65 0l171.11 0c1.01,0 1.84,0.83 1.84,1.85l0 7.34c0,1.02 -0.83,1.85 -1.84,1.85l-171.11 0c-1.01,0 -1.84,-0.83 -1.84,-1.85l0 -7.34c0,-1.02 0.83,-1.85 1.84,-1.85zm190.66 34.46l30.91 0 0 8.96 -40.4 0 0 -75.8 9.49 0 0 66.84zm75.75 -8.4l-24.86 0 -4.75 17.36 -10.27 0 22.72 -75.8 9.47 0 22.73 75.8 -10.29 0 -4.75 -17.36zm39.74 18.14c-3.61,0 -7.25,-0.47 -10.66,-1.7 -3.07,-1.1 -5.74,-2.82 -7.92,-5.25 -2.26,-2.54 -3.7,-5.62 -4.52,-8.91l-0.07 -0.26 8.95 -3.64 0.08 0.34c0.91,3.16 2.49,6.03 5.25,7.94 2.64,1.84 5.69,2.57 8.89,2.57 3.53,0 7.39,-0.59 10.22,-2.87 2.56,-2.08 3.53,-4.95 3.53,-8.18l0 -2.8c0,-2.21 -0.48,-4.44 -1.98,-6.15 -1.41,-1.62 -3.23,-2.79 -5.2,-3.64 -2.32,-0.99 -4.72,-1.8 -7.14,-2.51 -2.43,-0.71 -4.83,-1.48 -7.21,-2.33 -2.39,-0.85 -4.65,-1.98 -6.73,-3.41 -2.09,-1.45 -3.73,-3.34 -4.93,-5.58 -1.45,-2.69 -1.88,-5.92 -1.88,-8.94l0 -2.03c0,-5.69 1.54,-11.04 5.94,-14.87 4.61,-4.01 10.88,-5.14 16.82,-5.14 4.75,0 9.56,0.95 13.44,3.79 3.85,2.8 6.04,6.93 7.24,11.45l0.07 0.26 -8.75 3.65 -0.1 -0.34c-0.84,-2.8 -2.2,-5.58 -4.51,-7.47 -2.12,-1.74 -4.65,-2.43 -7.39,-2.43 -3.42,0 -7.19,0.6 -9.94,2.82 -2.51,2.04 -3.45,4.92 -3.45,8.09l0 2.11c0,2.29 0.55,4.47 2.18,6.14 1.63,1.65 3.66,2.79 5.81,3.59 2.56,0.95 5.13,1.81 7.73,2.59 2.31,0.7 4.61,1.47 6.87,2.36 2.22,0.87 4.33,2 6.25,3.44 1.97,1.49 3.45,3.39 4.54,5.6 1.3,2.66 1.68,5.77 1.68,8.7l0 2.95c0,5.72 -1.57,11.06 -5.99,14.88 -4.7,4.06 -11.1,5.18 -17.12,5.18zm69 -33.65l-25.69 0 0 32.87 -9.47 0 0 -75.8 9.47 0 0 33.92 25.69 0 0 -33.92 9.41 0 0 75.8 -9.41 0 0 -32.87zm48.13 -42.93l22.66 0c5.85,0 11.9,1.23 16.24,5.43 4.29,4.15 5.63,9.89 5.63,15.67l0 33.6c0,3.94 -0.64,7.97 -2.52,11.48 -1.71,3.2 -4.21,5.57 -7.45,7.19 -3.67,1.83 -7.88,2.43 -11.94,2.43l-22.62 0 0 -75.8zm66.03 8.91l0 24.79 27.31 -0.05 0 8.96 -27.31 0.05 0 24.18 31.44 0 0 8.96 -40.91 0 0 -75.8 40.91 0 0 8.91 -31.44 0zm62.72 67.67c-3.6,0 -7.25,-0.47 -10.66,-1.7 -3.05,-1.1 -5.73,-2.82 -7.9,-5.25 -2.27,-2.54 -3.72,-5.62 -4.55,-8.91l-0.06 -0.26 8.95 -3.64 0.1 0.34c0.89,3.16 2.49,6.03 5.23,7.94 2.66,1.84 5.7,2.57 8.89,2.57 3.54,0 7.4,-0.59 10.22,-2.87 2.56,-2.08 3.54,-4.95 3.54,-8.18l0 -2.8c0,-2.21 -0.48,-4.44 -1.97,-6.15 -1.42,-1.62 -3.25,-2.79 -5.23,-3.64 -2.3,-0.99 -4.7,-1.8 -7.12,-2.51 -2.42,-0.71 -4.84,-1.48 -7.21,-2.33 -2.38,-0.85 -4.65,-1.98 -6.73,-3.41 -2.11,-1.45 -3.72,-3.34 -4.93,-5.58 -1.46,-2.69 -1.88,-5.92 -1.88,-8.94l0 -2.03c0,-5.69 1.54,-11.04 5.93,-14.87 4.61,-4.01 10.9,-5.14 16.84,-5.14 4.72,0 9.54,0.95 13.43,3.79 3.84,2.8 6.02,6.93 7.22,11.45l0.09 0.26 -8.75 3.65 -0.1 -0.34c-0.84,-2.8 -2.21,-5.58 -4.51,-7.47 -2.12,-1.74 -4.67,-2.43 -7.38,-2.43 -3.45,0 -7.21,0.6 -9.95,2.82 -2.52,2.04 -3.45,4.92 -3.45,8.09l0 2.11c0,2.29 0.56,4.47 2.19,6.14 1.61,1.65 3.65,2.79 5.81,3.59 2.54,0.95 5.1,1.81 7.7,2.59 2.32,0.7 4.61,1.47 6.87,2.36 2.24,0.87 4.34,2 6.25,3.44 1.98,1.49 3.47,3.39 4.55,5.6 1.29,2.66 1.69,5.77 1.69,8.7l0 2.95c0,5.72 -1.59,11.06 -6,14.88 -4.68,4.06 -11.11,5.18 -17.12,5.18zm43.95 -76.58l0 75.8 -9.47 0 0 -75.8 9.47 0zm49.38 44.16l-13.19 0 0 -8.96 22.8 0 0 17.33c0,4.43 -0.66,9.01 -2.63,13.02 -1.72,3.52 -4.27,6.3 -7.69,8.22 -3.7,2.08 -7.95,2.81 -12.17,2.81 -4.22,0 -8.54,-0.69 -12.31,-2.67 -3.41,-1.78 -6.02,-4.37 -7.82,-7.77 -1.98,-3.75 -2.68,-8.01 -2.68,-12.22l0 -30.7c0,-4.43 0.68,-8.98 2.64,-12.99 1.74,-3.51 4.28,-6.29 7.7,-8.2 3.72,-2.07 7.95,-2.81 12.16,-2.81 3.97,0 7.97,0.67 11.49,2.58 3.27,1.77 5.72,4.36 7.48,7.63 2.02,3.8 2.91,8.21 3.21,12.48l0.02 0.34 -10.13 0 -0.04 -0.29c-0.31,-3.56 -1.23,-7.51 -3.7,-10.23 -2.21,-2.42 -5.09,-3.39 -8.33,-3.39 -3.69,0 -7.11,1.01 -9.6,3.85 -2.63,3.01 -3.38,7.15 -3.38,11.03l0 30.7c0,3.66 0.82,7.34 3.47,10.02 2.61,2.67 6.19,3.52 9.82,3.52 3.65,0 7.04,-0.97 9.5,-3.74 2.66,-2.96 3.38,-7.13 3.38,-10.98l0 -8.58zm59.23 12.69l0 -56.85 9.26 0 0 75.75 -8.76 0 -28.83 -55.86 0 55.86 -9.26 0 0 -75.75 8.68 0 28.91 56.85zm-440.61 -7.32l-9.99 -36.48 -10 36.48 19.99 0zm168.77 17.31l13.5 0c3.23,0 6.62,-0.65 9.01,-2.99 2.36,-2.32 3.06,-5.56 3.04,-8.78l0 -34.38c0.02,-3.21 -0.7,-6.43 -3.04,-8.75 -2.41,-2.36 -5.76,-3.03 -9.01,-3.03l-13.5 0 0 57.93zm-272.05 -750.17c0.48,2.03 2.8,6.09 3.8,8.06 12.87,25.75 25.25,63.53 27.89,91.46 0.7,7.28 1.46,15.13 1.46,22.7 0,11.14 -1.06,22.36 -3.04,33.43 -0.25,1.48 -1.84,9.09 -2.32,9.62 -0.55,0.61 0.46,0.3 -0.85,0.48 -1.44,0.21 -0.62,-0.06 -0.8,-0.24 -0.64,-0.64 -0.09,-6.83 -0.09,-8.24 0,-20.32 -3.46,-42.78 -10.48,-61.51 -8.15,-21.73 -10.86,-25.95 -21.1,-44.76l-6.88 -11.11c-1.36,-2.02 -3.44,-5.97 -5.12,-7.2 0.14,1.58 1.88,5.56 2.58,7.38 7.67,20.01 14.36,44.15 16.42,65.52 1.54,16.12 2.35,31.47 -0.45,47.96l-3.38 17.46 -1.91 0c0,-24.05 -0.53,-35.44 -6.73,-58.17 -3.93,-14.51 -8.7,-24.76 -14.59,-37.99 -4.24,-9.57 -18.58,-33 -24.48,-40.87 -1.89,-2.52 -9.85,-13.82 -11.51,-15.03l5.97 21.03c5.48,22 8.14,35.55 10.53,58.15 0.47,4.29 1.44,27.77 0.75,32.34 -0.35,2.38 -0.03,4.52 -0.23,6.88 -1.61,19.76 -5.38,38.2 -12.55,56.13 -0.75,1.9 -1.37,2.98 -2.03,4.59 -0.73,1.78 -1.8,3.26 -1.97,5.15 -2.01,-0.05 -2.8,0.87 -1.53,-3.88 4.09,-15.11 4.8,-29.07 4.85,-45.39 0.06,-14.93 -4.1,-35.7 -7.57,-49.73 -4.37,-17.64 -15.33,-45.41 -24.09,-62.13l-8.64 -16.46c-0.71,-1.04 -0.68,-1.33 -2.33,-1.47 1.41,2.95 2.34,7.22 3.49,10.72 3.39,10.39 7.14,23.64 9.34,34.24 1.64,7.92 3.24,15.96 4.63,24.27 0.7,4.21 2.92,21.81 2.92,26.45l0.47 13.74c0,9.14 -0.07,18.77 -1.29,27.62 -2.46,17.94 -5.99,35.63 -13.57,51.81 -0.78,1.68 -1.78,3.56 -2.2,5.37 -3.28,-0.28 -2.24,-0.45 -0.09,-9.57 4.96,-21.14 4.04,-44.98 0.89,-66.56 -2.15,-14.73 -7.14,-31.84 -12.24,-46.03 -2.59,-7.25 -5.22,-13.61 -8.18,-20.7 -4.63,-11.03 -12.09,-25.39 -18.11,-36.36 -0.57,-1.03 -0.94,-1.47 -1.59,-2.21l5.57 21.91c3.44,16.31 8.78,42.97 9.59,59.57l0.96 27c0.01,2.89 -0.37,3.88 -0.48,6.15 -0.13,2.32 0.18,4.7 -0.13,6.98 -0.51,3.66 -0.82,8.69 -1.26,12.49 -0.49,4.28 -1.11,8.42 -1.88,12.32 -1.58,7.95 -3.14,15.14 -5.55,22.4l-5.73 15.11c-0.79,1.83 -1.86,2.96 -2.03,5.08 -1.29,-0.11 -1.29,-0.23 -2.38,-0.48 6.93,-29.71 6.96,-53.15 0.84,-83.72 -2.56,-12.81 -5.91,-25.07 -9.77,-36.66 -3.24,-9.68 -7.27,-20 -11.3,-29.44 -0.38,-0.88 -0.46,-1.04 -0.86,-1.98 -0.2,-0.47 -0.2,-0.56 -0.42,-1 -0.58,-1.13 -0.16,-0.47 -0.74,-1.15 0,4.39 2.15,13.81 2.98,18.81 2.73,16.35 3.65,34.2 3.65,50.82 0,10.06 -1.02,21.18 -2.35,30.82 -1.68,12.08 -4.48,24.28 -8.62,35.43 -1.06,2.83 -3.87,11.1 -5.74,13.69 -0.95,1.33 0.21,0.85 -1.78,1.07 -0.95,-2.01 0.69,-6.45 1.23,-9.2 0.69,-3.49 1.19,-6.03 1.71,-9.67 1.4,-9.83 1.49,-22.12 1.36,-32.79 -0.16,-12.95 -4.78,-36.78 -8.07,-49.24 -3.1,-11.67 -6.65,-23.13 -11.17,-34.31l-4.88 -12.19c-0.37,-0.93 -0.42,-1.08 -0.85,-1.99 -0.21,-0.46 -0.24,-0.57 -0.45,-0.97 -0.06,-0.13 -0.27,-0.51 -0.31,-0.62l-0.35 -0.61c0,30.52 -1.88,57.62 -6.69,86.62 -1.44,8.67 -3.15,17.67 -5.24,26.03 -5.84,23.25 -13.4,46.92 -25.69,67.63 -1.1,1.87 -10.18,17.09 -11.9,17.76 -1.02,0.39 0.07,0.39 -0.69,-0.03 -2.01,-0.97 -0.8,-1.02 0.53,-4.2 0.7,-1.65 1.52,-3.17 2.32,-4.8 9.77,-19.79 17.4,-55.32 17.98,-78.17l0.89 -12.85c0.41,-3.63 0.41,-23.8 -0.07,-27.28l-0.82 -12.91c-0.37,-15.52 -5.2,-43.6 -5.2,-49.74l-0.47 0c0,9.53 -0.97,18.61 -1.42,27.95 -1.91,39.46 -11.21,84.71 -26.99,119.85 -4.57,10.17 -9.46,19.42 -15.54,28.51 -3.11,4.64 -4.17,7.72 -7.22,7.01l8 -18.55c8.24,-20.39 12.07,-43.09 13.83,-66.21 0.17,-2.15 0.43,-3.36 0.42,-6.21 0,-2.85 0.48,-3.42 0.52,-6.12l0.12 -19.09c-0.6,-4.26 -0.07,-8.86 -0.12,-13.16 -0.04,-2.75 -0.53,-3.57 -0.51,-6.6 0.1,-12.47 -1.88,-24.43 -3.26,-36.53 -0.47,-4.07 -1.46,-8.14 -1.46,-12.27l-0.48 0c0,2.73 -0.59,4.69 -0.92,7.13 -0.35,2.57 -0.73,4.18 -1.17,6.87 -2.23,13.49 -5.47,27.2 -9.22,40.05 -3.67,12.58 -7.79,24.63 -12.58,36.69 -0.87,2.2 -1.51,3.52 -2.36,5.68 -3.83,9.62 -8.49,19 -13.51,27.71l-12.53 20.63c-5.43,8.12 -11.29,15.73 -17.46,23.29 -6.23,7.66 -13,14.27 -19.9,21.31 -0.51,0.53 -4.1,4.77 -4,1.21l22.92 -34.88c5.86,-10.95 11.4,-22.36 15.71,-34.03 9.97,-26.99 17.63,-58.37 19.03,-87.55 0.26,-5.4 0.96,-9.91 0.92,-15.65 0,-3.28 0.5,-4.61 0.5,-8.04l-0.48 0c0,9.44 -10.75,45.24 -13.32,52.99 -5.08,15.21 -11.89,32.63 -19.52,46.8l-12.08 21.09c-4.35,6.92 -8.62,13.21 -13.48,19.67l-10.96 13.67c-1.38,1.78 -2.81,2.73 -4.14,4.39 -2.32,2.91 -13.88,14.9 -16.5,16.65 -1.38,-2.06 -0.96,-1.84 0.73,-3.99l8.93 -12.4c1.94,-2.9 3.65,-5.46 5.5,-8.23 7.26,-10.87 14.16,-25.31 19.15,-37.23l5.77 -15.07c0.69,-2 1.2,-3.1 1.89,-5.2 7.47,-22.54 15.34,-59.44 15.34,-83.2l-0.65 1.25c-5.95,14.44 -12.44,33.31 -20.57,46.69 -6.81,11.19 -12.05,21.46 -20.06,32.05l-9.51 12.28c-0.88,1 -0.97,1.35 -1.91,2.35 -3.02,3.26 -14.29,16.11 -16.65,17.92l-13.91 12.15c-11.34,9.29 -23.59,17.32 -36.74,23.9 -1.57,0.78 -4.72,2.66 -6.01,3 -0.03,-0.15 -0.27,-1.02 -0.28,-1.14 -0.03,-1.42 0.9,-1.8 2.12,-2.72l11.8 -9.52c1.26,-1.16 2.04,-2.22 3.35,-3.27 3.86,-3.08 7.65,-6.68 10.69,-10.63 3.35,-4.32 8.1,-8.88 12.79,-15.15 6.01,-8.01 11.27,-16.64 16.47,-25.22l7.08 -13.76c7.45,-18.45 11.12,-24.4 16.62,-46.4 0.7,-2.82 2.51,-8.59 2.74,-11.46l-12.87 23.6c-14.39,23.73 -29.7,42.05 -50.24,61.08 -6.33,5.85 -18.46,14.68 -25.63,18.91 -2.09,1.24 -19.4,11.93 -21.78,11.86 -4.85,-0.12 7.11,-8.01 11.41,-11.82l22.09 -22.43c5.47,-6.97 10.99,-13.68 15.64,-21.31l5.75 -9.41c4.72,-7.98 8.64,-16.02 12.26,-24.7 6.06,-14.58 10.64,-29.54 14.57,-45.1 1.33,-5.3 4.65,-19.66 4.65,-25.21l-1.76 3.93c-15.61,39.34 -36.21,76.04 -63.48,108.49l-23.22 24.13c-1.29,1.28 -1.68,1.56 -3.04,2.65l-23.23 18.45c-9.57,6.39 -19.39,12.59 -29.91,17.46l-16.57 7.13c-3.46,1.35 -20.89,7.56 -24.24,8.04 -1.51,0.21 -1.43,-0.05 -2.15,-0.8 0.74,-2.01 5.27,-3.19 6.97,-3.92 2.77,-1.2 5.23,-2.16 7.89,-3.5 5.2,-2.62 9.71,-5.19 14.84,-7.89 7.78,-4.11 19.83,-12.91 26.56,-18.43 3.69,-3.01 17.8,-15.55 20.61,-18.72l22.81 -27.87c18.88,-27.29 34.73,-58.78 44.17,-90.84 0.86,-2.99 1.71,-5.61 2.7,-8.66l4.85 -17.89c0.65,-2.56 2.04,-6.84 2.09,-9.28l-7.52 17.12c-1.17,2.88 -2.51,5.81 -3.86,8.45 -1.37,2.74 -2.5,5.49 -3.94,8.37 -8.3,16.58 -16.95,31.99 -27.13,47.25 -5.03,7.55 -9.77,14.56 -15.45,21.49 -1.91,2.33 -3.51,4.6 -5.47,6.85 -1.09,1.24 -1.71,2.16 -2.83,3.32l-8.92 10.03c-4.2,5.44 -10.51,10.51 -15.48,15.31 -1.28,1.23 -1.82,1.92 -3.19,2.97l-6.57 5.74c-13.31,10.6 -21.79,16.41 -36.62,25.44 -2.67,1.61 -5.24,2.74 -8.14,4.19 -5.81,2.9 -10.96,5.39 -17.22,7.87l-27.8 9.15c-2.17,0.54 -5.39,1.85 -7.59,1.92 -1.96,0.07 -0.66,0.72 -1.69,-1.26 0.75,-1.03 1.12,-0.95 2.35,-1.44l9.15 -3.63c9.99,-4 19.12,-8.9 28.25,-14.38 8.78,-5.26 17.02,-11.2 24.98,-17.65l9.09 -7.97c9.54,-7.61 16.78,-17.32 24.83,-26.33 2.72,-3.06 4.82,-6.47 7.39,-9.67 5.12,-6.37 9.47,-13.43 13.65,-20.45 3.24,-5.47 6.48,-10.57 9.29,-16.27 2.38,-4.79 7.32,-12.63 8.38,-17.21 -1.17,0.86 -3.09,3.9 -4.19,5.27l-13.26 16.11 -29.55 28.72c-3.57,3.12 -6.93,5.86 -10.73,8.7 -7.46,5.61 -15.07,11.41 -23.11,16.19 -26.04,15.47 -38.13,21.48 -66.06,31.53 -4.82,1.73 -9.5,3.39 -14.63,4.8 -5,1.37 -9.71,3.19 -15.11,4.3 -3.37,0.69 -13.76,3.7 -16.16,3.75 -0.11,-1.47 0.01,-0.9 -0.47,-1.9l11.58 -5.01c10.93,-4.56 23.68,-11.33 33.93,-17.22 11.59,-6.68 19.92,-11.91 30.7,-19.99 4.58,-3.44 18.68,-14.46 23.16,-19 5.79,-5.87 7.98,-6.59 14.94,-14.9 0.69,-0.84 1.33,-1.38 2.11,-2.15 3.63,-3.61 12.56,-14.12 15.36,-18.26 1.22,-1.79 2.36,-3.2 3.63,-4.9l10.31 -15.29c0.98,-1.5 2.64,-3.81 3.03,-5.49l-31.4 32.55 -11.65 9.67c-3.24,2.57 -6.15,5.05 -9.63,7.43l-20.65 13.92c-10.25,6.61 -27.81,15.8 -39.07,20.62 -14.21,6.07 -28.94,11.93 -44.02,16.13l-13.64 3.89c-0.12,-1.46 0.01,-0.89 -0.47,-1.89 11.42,-6.05 23.66,-11.42 35.44,-18.56l11 -7c1.99,-1.19 3.46,-2.28 5.51,-3.49l25.74 -19.26c1.52,-1.19 3.42,-2.74 4.85,-4.15l22.94 -22.05c2.87,-3.42 5.36,-6.39 8.32,-9.7 6.71,-7.53 17.26,-22.78 22.47,-31.52 1.22,-2.04 2.18,-3.63 3.38,-5.62 2.15,-3.56 8.41,-15.06 9.09,-17.92l-34.22 43c-7.32,8.23 -17.57,18.51 -25.83,25.8 -14.15,12.51 -35.82,28.49 -51.43,36.21 -8.79,4.34 -11.07,5.69 -21.14,10.11 -15.57,6.83 -31.02,10.74 -47.9,14.17l-18.43 2.4 0 -1.89c13.51,-3.15 33.78,-10.99 45.94,-17.06 16.85,-8.4 31.65,-18.98 46.1,-31.11 4.92,-4.14 17.54,-15.93 20.77,-19.98l8.34 -9.66c3.2,-3.38 13.38,-17.03 15.84,-20.63 6.07,-8.91 12.41,-18.39 17.59,-27.88 1.14,-2.09 2.6,-3.91 3.15,-6.32 -1.44,0.97 -13.39,16.02 -16.68,19.31l-24.87 24.87c-7.46,7.21 -19.38,15.73 -27.73,22 -11.32,8.5 -38.65,23.59 -53.46,28.5 -8.84,2.93 -18.24,6.64 -27.85,8.63 -6.55,1.35 -24.53,5.17 -31.3,5.17 0.06,-2.87 0.13,-2.07 5.05,-3.48 2.54,-0.74 4.45,-1.28 6.99,-2 5.16,-1.46 8.61,-3.01 13.36,-4.65 8.81,-3.06 16.58,-7.01 24.5,-11.02 10.39,-5.28 22.9,-13.71 32.26,-20.8l14.35 -12.17c5.96,-6.02 7.8,-6.73 15.63,-15.63l6.39 -6.88c9.71,-10.9 26.41,-34.35 33.21,-46.84 1,-1.83 2.71,-3.99 3.15,-5.85 -1.36,0.92 -1.64,1.68 -2.73,2.95 -4.82,5.55 -8.1,9.54 -13.5,14.93l-11.6 11.6c-7.85,7.93 -22.48,19.3 -31.65,25.66 -6.96,4.82 -21.27,13.4 -28.77,17.18 -19.99,10.07 -37.27,15.75 -59.25,21.28 -8.85,2.23 -20.55,4.2 -29.32,5.27 -3.59,0.45 -7.29,0.54 -10.41,0.95 -3.65,0.47 -6.92,0.61 -10.79,0.59 -3.68,-0.02 -6.63,0.49 -10.87,0.49 -3.96,-0.01 -7.9,-0.02 -11.85,0 -4.1,0.02 -6.54,-0.49 -10.9,-0.48 -8.51,0.03 -17.95,-1.7 -26.12,-2.31 -3.79,-0.28 -3.02,0.69 -2.77,-2.43 7.75,0 14.07,-0.35 21.81,-0.45l20.5 -1.77c6.86,-0.94 13.15,-1.96 19.42,-2.84 6.45,-0.91 12.36,-2.65 18.37,-3.9 9.07,-1.88 24.58,-7.1 33.87,-10.65 4.83,-1.86 18.23,-7.84 23.08,-10.55 2.5,-1.4 4.95,-2.59 7.34,-4.03 7.22,-4.37 13.34,-7.93 20.25,-12.9l18.79 -14.84c16.78,-14.79 34.51,-35.97 45.93,-54.98 1.06,-1.76 3.73,-5.51 4.17,-7.19l-10.53 11.25c-3.75,3.74 -7.13,7.18 -10.89,10.9 -1.17,1.16 -1.68,1.34 -2.85,2.36 -1.09,0.96 -1.77,1.86 -2.84,2.85 -10.99,10.16 -25.14,19.79 -37.87,27.97 -8.1,5.2 -20.4,10.81 -28.97,15.1 -13.39,6.71 -44.91,15.73 -59.12,18.08 -11.94,1.98 -27.89,4.38 -39.72,4.33 -6.63,-0.03 -13.29,0.74 -21.8,0.49 -2.34,-0.07 -2.37,-0.43 -4.72,-0.5 -6.15,-0.19 -8.48,0.32 -15.85,-0.73l-15.04 -1.54c-2.85,-0.26 -3.56,0.76 -4.17,-1.51 1.49,-2.03 3.23,-0.39 8.73,-1.22l19.21 -0.68c9.82,-0.49 26.57,-2.86 36.28,-4.45 9.91,-1.63 32.08,-7.74 40.42,-10.76l21.64 -8.67c5.88,-2.43 11.34,-5.64 16.94,-8.64l9.58 -5.57c2.26,-1.38 4.3,-2.68 6.36,-4.06 8.13,-5.44 15.76,-11.24 23.1,-17.63 15.65,-13.64 24.2,-23.75 36.46,-39.82 0.83,-1.11 1.67,-1.86 2.02,-3.19l-23 20.1c-21.87,17.19 -44.6,29.32 -71.32,37.17 -43.41,12.74 -88.5,8.08 -129.91,-6.4l-23.35 -9.34c-5.12,-2.46 -6.09,-1.49 -5.37,-4.58 4.42,1.03 8.69,2.66 13.27,3.79 4.55,1.13 8.92,2.4 13.68,3.36 9.32,1.87 19.4,4 29.87,4.71 2.04,0.14 5.55,0.4 7.81,0.73l16.35 0.65c2.69,-0.23 4.7,-0.45 8.09,-0.44 8.03,0.04 22.63,-2.34 30.51,-4.07 23.21,-5.11 36.69,-12.04 54.59,-22.62 4.28,-2.53 16.54,-11.5 19.93,-14.65 1.58,-1.48 2.98,-2.47 4.5,-4.03 1.62,-1.66 2.85,-2.36 4.49,-4.02 1.57,-1.58 3.2,-2.84 4.38,-4.62l-10.88 7.11c-3.7,2.46 -18.48,11.22 -22.94,13.06l-12.87 5.61c-17.48,7 -36.55,11.67 -58.96,13.51 -5.91,0.49 -11.2,0.01 -17.02,0.02 -12.06,0.02 -20.88,-1.12 -32.82,-3.18 -5.62,-0.97 -9.93,-2 -15.3,-3.17 -11.86,-2.57 -29.22,-8.82 -40.88,-13.6 -1.99,-0.82 -4.24,-1.88 -6.24,-2.77 -2.16,-0.98 -4.49,-1.84 -6.61,-2.85l0.96 -1.88c8.55,1.97 16.89,5.15 27.74,7.29 5.15,1.02 9.42,1.9 14.74,2.78 4.96,0.82 10.01,1.16 15.63,1.89 20.49,2.65 48.01,0.12 64.85,-4.11 21.89,-5.5 41.78,-14.53 59.79,-27.83 6.49,-4.79 23.96,-18.95 28.02,-25.04 -1.7,0.4 -3.93,2.04 -5.53,2.99l-17.51 9.49c-15.72,7.86 -35.58,14.94 -53.1,18.43 -10.16,2.04 -14.46,2.13 -23.68,3.33 -2.5,0.33 -5.71,0.09 -8.59,0.41 -9.06,1.02 -23.78,-0.51 -32.88,-1.82 -18.31,-2.63 -38.9,-8.87 -54.81,-16.73 -3.25,-1.61 -20.17,-9.7 -21.99,-11.63 -0.98,-1.04 -0.5,0.68 -0.75,-1.62 1.81,-0.87 3.46,0.33 5.48,1.15 2.14,0.85 3.66,1.51 5.83,2.22l12.08 4.02c3.98,1.33 8.57,2.62 12.64,3.46 4.36,0.9 9.09,2.1 13.36,2.75 51.43,7.84 91.56,-4.04 132.13,-31.52 1.78,-1.2 3.04,-2.07 4.71,-3.33 1.94,-1.46 7.89,-5.61 8.93,-7.18l-20.3 8.59c-14.9,5.32 -29.99,9.75 -46.11,11.7 -4.35,0.52 -9.24,0.82 -13.29,1.37 -3.8,0.52 -10.46,0.13 -14.56,0.13 -27.17,0.01 -58.37,-8.57 -81.63,-20.21l-9.63 -5.06c-2.76,-1.38 -12.13,-5.56 -9.03,-7.1 0.7,-0.36 16.59,6.06 18.91,6.69 3.96,1.09 7.49,2.37 11.37,3.33 35.14,8.69 66.94,9.3 101.69,-2.33 6.29,-2.11 33.11,-13.45 39.37,-18.9l-23.11 6.26c-7.92,1.87 -16.75,3.36 -25.35,4.5 -36.89,4.87 -67.67,-0.53 -100.27,-15.03 -6.46,-2.87 -12.82,-6.67 -18.74,-10.62 -1.54,-1.03 -2.59,-1.86 -4.2,-2.92 -1.75,-1.16 -2.77,-1.94 -4.41,-3.16 -1.57,-1.18 -2.8,-2.11 -4.34,-3.25 -1.61,-1.21 -2.63,-2.13 -4.32,-3.25l0.97 -1.88c5.1,2.69 9.92,5.2 15.28,7.89 14.22,7.11 30,11.26 45.66,13.56 3.11,0.46 7.18,0.54 10.77,1.07 17.19,2.58 46.37,-2.72 62.15,-8.03l12.96 -4.56c0.69,-0.27 1.2,-0.43 2.09,-0.75 1.46,-0.52 1.19,-0.28 2.18,-1.14 -4.88,0 -9.7,0.9 -14.68,0.96 -15.43,0.19 -30.36,-1.23 -45.13,-4.16l-17.12 -4.67c-5.23,-1.82 -10.42,-3.77 -15.28,-6.03 -9.73,-4.51 -19.16,-9.52 -27.71,-15.87 -2.18,-1.63 -4.06,-2.92 -6.29,-4.6 -1.33,-1 -5.26,-4 -5.95,-4.95 0.56,-0.63 0.51,-0.6 0.95,-1.42l13.1 6.79c4.65,2.34 9.23,4.18 14.22,6.14 8.43,3.31 22,7.11 31.96,8.3 22.01,2.64 42.58,1.65 63.87,-3.7 1.47,-0.37 2.6,-0.63 4.17,-1.05 0.65,-0.17 0.91,-0.23 1.85,-0.52l2.04 -0.8c-4.02,0 -7.71,0.9 -11.71,0.34 -12.99,-1.81 -16.27,0.05 -33.97,-4.41 -14.39,-3.64 -24.95,-7.8 -36.91,-13.77 -8.31,-4.16 -16,-9.06 -23.52,-14.37 -4.68,-3.3 -9.87,-7.06 -14.09,-11.01 -1.37,-1.27 -1.64,-1.7 -3.24,-2.93 -1.46,-1.13 -2.09,-2.11 -3.45,-3.19 -2.66,-2.13 -11.17,-10.21 -12.85,-12.72 2.67,-1.79 3.25,-0.02 6.15,1.9 2.11,1.39 4.04,2.86 6.15,4.27l12.99 7.85c10.7,6.34 24.08,11.95 36.12,15.52 3,0.89 5.1,1.61 8.17,2.24 2.88,0.59 5.44,1.34 8.58,1.86l18.53 2.3c6.14,0.68 13.98,0.25 20.12,-0.61l8.72 -1.69c-11.62,0 -30.86,-6.9 -41.56,-11.51 -2.66,-1.15 -4.99,-2.06 -7.55,-3.33l-23.17 -13.78 -15.42 -11.58c-6.9,-5.61 -12.85,-12.05 -19.25,-18.18 -1.74,-1.67 -1.97,-1.18 -1.53,-3.2 3.49,0.29 8.21,4.89 11.18,6.82 3.79,2.48 7.34,4.49 11.17,6.83 15.28,9.3 34.73,16.84 52.05,20.42 10.86,2.24 20.45,2.87 33.6,2.87l0 -0.47c-12.44,0 -36.87,-9.19 -48.78,-15.16 -9.45,-4.72 -18.3,-10.14 -26.81,-16.3l-12.2 -9.6c-3.26,-2.63 -20.92,-18.81 -21.64,-21.47 1.97,-1.63 4.47,1.24 7.59,3.32 13.86,9.24 28.15,16.5 43.78,22.54 3.33,1.28 6.45,2.24 10.01,3.24 3.34,0.95 7.25,2.36 10.63,2.64l-20.64 -13.93c-8.8,-6.59 -16.72,-14.19 -24.47,-21.95 -1.64,-1.63 -4.99,-4.08 -5.57,-6.28l1.04 -0.85c1.66,0.37 7.23,4.47 9.18,5.78 8.51,5.7 20.5,12.39 30.1,16.32 11.59,4.75 22.69,8.84 35.27,11.17 4.62,0.85 8.78,1.69 13.94,1.69 -0.88,-3.76 -6.65,-14.25 -8.53,-18.48 -2.78,-6.27 -5.27,-12.47 -7.93,-19.08 -1.3,-3.27 -2.6,-6.14 -3.74,-9.51 -1.18,-3.48 -2.31,-6.75 -3.64,-10.11 -6.64,-16.77 -14.09,-45.35 -17.96,-63.5 -1.67,-7.78 -7.95,-38.5 -7.95,-46.54 1.47,-0.12 0.89,0.01 1.9,-0.47 0.72,1.35 1.21,2.86 1.89,4.26l9.78 22.43c4.88,10.16 16.61,36.13 20.81,43.14 4.89,8.17 8.5,16.87 13.38,25l14.15 24.22c0.89,1.5 1.47,2.27 2.37,3.78l7.73 12.17c13.91,20.88 28.42,41.78 45.11,60.52l22.97 25.34c4.38,4.38 8.43,8.41 12.8,12.79 6.47,6.49 13.55,12.41 20.37,18.48 1.23,1.09 2.09,1.74 3.33,2.82 1.16,1.03 2.36,2.02 3.62,3.01 4.93,3.9 9.23,7.48 14.21,11.37l18.28 13.47c25.3,16.75 41.88,27.09 68.51,40.42l30.89 14.11c10.8,4.42 21.26,8.85 32.46,12.55l39.3 12.33c20.79,6.05 41.22,10.75 62.9,14.31l67.69 9.05c9.95,0.55 20.08,1.78 29.85,1.89 4.47,0.06 12.78,0.99 18.45,0.97 12.14,-0.04 39.96,1.78 50.41,0.2 4.04,-0.61 8.45,-0.06 12.61,-0.19 2.47,-0.07 3.22,-0.51 6.12,-0.5l30.82 -1.4c3.7,-0.19 7.8,-0.76 11.83,-0.96l57.94 -6.49c58.05,-7.61 111.58,-21.99 165.58,-39.99 36.57,-12.18 69.33,-22.48 108.62,-18.02 18.86,2.14 32.53,6.68 49.04,14.92 3.04,1.52 5.57,3.31 8.2,5.06 2.74,1.83 4.71,3.32 7.38,5.41 2.64,2.08 4.38,3.88 6.9,5.89 6.13,4.89 15.83,17.95 19.86,24.67 3.29,5.51 9.37,16.22 9.92,22.77 -2.94,0.68 -2.41,-0.97 -6.74,-7.49 -1.12,-1.69 -1.96,-2.84 -3.14,-4.42 -14.73,-19.71 -35.88,-34.08 -60.32,-40.11 -29.85,-7.36 -63.93,-1.03 -91.94,10.2 -3.69,1.47 -7.39,3.5 -11.24,4.4 0.85,3.16 5.7,9.26 7.55,12.33l17.36 32.87c7.15,17.23 14.07,35.78 15.38,55.2l0.45 18.97 -1.89 0c-1.24,-5.33 -2.25,-11.97 -3.69,-17.16 -5.67,-20.34 -16.33,-39.56 -28.94,-56.33 -5.98,-7.97 -12.24,-16.22 -19.36,-23.26 -1.22,-1.19 -1.42,-1.53 -2.42,-2.8 -2.08,-2.61 -5.47,-6.21 -8.13,-7.98 -1.24,0.29 -1.38,0.43 -2.36,0.95l14.19 22.29c12.03,19.96 21.02,41.28 26.27,64.2 1.91,8.36 3.63,19.12 3.6,28.13 -0.03,5.65 1.4,8.45 -2.37,8.54 -0.06,-2.06 -0.98,-6.62 -1.43,-8.54 -2.46,-10.5 -5.58,-20.73 -10.25,-30.47 -1.19,-2.48 -2.32,-4.61 -3.48,-6.94l-7.39 -12.99c-6.35,-9.67 -17.98,-26.34 -26.35,-34.75 -3,-3 -7.1,-8.36 -10.32,-10.53zm562.93 0c-0.48,2.03 -2.8,6.09 -3.8,8.06 -12.88,25.75 -25.25,63.53 -27.89,91.46 -0.69,7.28 -1.46,15.13 -1.46,22.7 0,11.14 1.06,22.36 3.04,33.43 0.26,1.48 1.84,9.09 2.32,9.62 0.55,0.61 -0.45,0.3 0.85,0.48 1.44,0.21 0.62,-0.06 0.8,-0.24 0.64,-0.64 0.09,-6.83 0.09,-8.24 0,-20.32 3.46,-42.78 10.49,-61.51 8.14,-21.73 10.86,-25.95 21.09,-44.76l6.88 -11.11c1.36,-2.02 3.44,-5.97 5.12,-7.2 -0.14,1.58 -1.88,5.56 -2.57,7.38 -7.68,20.01 -14.36,44.15 -16.43,65.52 -1.54,16.12 -2.34,31.47 0.45,47.96l3.38 17.46 1.91 0c0,-24.05 0.54,-35.44 6.73,-58.17 3.93,-14.51 8.71,-24.76 14.59,-37.99 4.24,-9.57 18.59,-33 24.48,-40.87 1.9,-2.52 9.86,-13.82 11.51,-15.03l-5.97 21.03c-5.48,22 -8.14,35.55 -10.53,58.15 -0.46,4.29 -1.44,27.77 -0.75,32.34 0.36,2.38 0.03,4.52 0.23,6.88 1.61,19.76 5.39,38.2 12.55,56.13 0.75,1.9 1.37,2.98 2.04,4.59 0.72,1.78 1.79,3.26 1.96,5.15 2.01,-0.05 2.8,0.87 1.53,-3.88 -4.09,-15.11 -4.79,-29.07 -4.85,-45.39 -0.05,-14.93 4.1,-35.7 7.58,-49.73 4.37,-17.64 15.32,-45.41 24.09,-62.13l8.63 -16.46c0.71,-1.04 0.68,-1.33 2.34,-1.47 -1.42,2.95 -2.35,7.22 -3.5,10.72 -3.39,10.39 -7.13,23.64 -9.34,34.24 -1.64,7.92 -3.24,15.96 -4.62,24.27 -0.71,4.21 -2.93,21.81 -2.93,26.45l-0.46 13.74c0,9.14 0.07,18.77 1.28,27.62 2.46,17.94 6,35.63 13.57,51.81 0.78,1.68 1.78,3.56 2.21,5.37 3.28,-0.28 2.23,-0.45 0.08,-9.57 -4.96,-21.14 -4.04,-44.98 -0.89,-66.56 2.15,-14.73 7.14,-31.84 12.24,-46.03 2.59,-7.25 5.22,-13.61 8.19,-20.7 4.62,-11.03 12.09,-25.39 18.11,-36.36 0.56,-1.03 0.93,-1.47 1.58,-2.21l-5.57 21.91c-3.43,16.31 -8.78,42.97 -9.58,59.57l-0.96 27c-0.02,2.89 0.36,3.88 0.48,6.15 0.12,2.32 -0.19,4.7 0.12,6.98 0.51,3.66 0.82,8.69 1.26,12.49 0.5,4.28 1.12,8.42 1.88,12.32 1.58,7.95 3.14,15.14 5.56,22.4l5.72 15.11c0.79,1.83 1.87,2.96 2.04,5.08 1.28,-0.11 1.28,-0.23 2.37,-0.48 -6.92,-29.71 -6.95,-53.15 -0.83,-83.72 2.56,-12.81 5.91,-25.07 9.77,-36.66 3.23,-9.68 7.26,-20 11.29,-29.44 0.38,-0.88 0.47,-1.04 0.86,-1.98 0.2,-0.47 0.2,-0.56 0.43,-1 0.58,-1.13 0.15,-0.47 0.73,-1.15 0,4.39 -2.15,13.81 -2.98,18.81 -2.73,16.35 -3.65,34.2 -3.65,50.82 0,10.06 1.02,21.18 2.35,30.82 1.68,12.08 4.48,24.28 8.62,35.43 1.06,2.83 3.88,11.1 5.74,13.69 0.95,1.33 -0.21,0.85 1.78,1.07 0.95,-2.01 -0.69,-6.45 -1.23,-9.2 -0.69,-3.49 -1.18,-6.03 -1.71,-9.67 -1.4,-9.83 -1.48,-22.12 -1.35,-32.79 0.15,-12.95 4.77,-36.78 8.07,-49.24 3.09,-11.67 6.64,-23.13 11.17,-34.31l4.87 -12.19c0.37,-0.93 0.43,-1.08 0.85,-1.99 0.21,-0.46 0.24,-0.57 0.45,-0.97 0.06,-0.13 0.26,-0.51 0.31,-0.62l0.36 -0.61c0,30.52 1.88,57.62 6.68,86.62 1.45,8.67 3.16,17.67 5.25,26.03 5.84,23.25 13.4,46.92 25.68,67.63 1.11,1.87 10.18,17.09 11.91,17.76 1.01,0.39 -0.07,0.39 0.69,-0.03 2.01,-0.97 0.78,-1.02 -0.54,-4.2 -0.69,-1.65 -1.51,-3.17 -2.32,-4.8 -9.76,-19.79 -17.4,-55.32 -17.98,-78.17l-0.89 -12.85c-0.41,-3.63 -0.41,-23.8 0.07,-27.28l0.82 -12.91c0.37,-15.52 5.2,-43.6 5.2,-49.74l0.47 0c0,9.53 0.98,18.61 1.43,27.95 1.89,39.46 11.21,84.71 26.98,119.85 4.57,10.17 9.46,19.42 15.54,28.51 3.11,4.64 4.17,7.72 7.22,7.01l-8 -18.55c-8.24,-20.39 -12.07,-43.09 -13.82,-66.21 -0.17,-2.15 -0.44,-3.36 -0.43,-6.21 0,-2.85 -0.48,-3.42 -0.52,-6.12l-0.11 -19.09c0.59,-4.26 0.07,-8.86 0.11,-13.16 0.04,-2.75 0.54,-3.57 0.51,-6.6 -0.1,-12.47 1.88,-24.43 3.26,-36.53 0.47,-4.07 1.46,-8.14 1.46,-12.27l0.48 0c0,2.73 0.6,4.69 0.92,7.13 0.35,2.57 0.74,4.18 1.17,6.87 2.24,13.49 5.47,27.2 9.22,40.05 3.68,12.58 7.79,24.63 12.58,36.69 0.88,2.2 1.51,3.52 2.36,5.68 3.83,9.62 8.5,19 13.52,27.71l12.52 20.63c5.43,8.12 11.3,15.73 17.46,23.29 6.23,7.66 13,14.27 19.9,21.31 0.51,0.53 4.1,4.77 4,1.21l-22.91 -34.88c-5.87,-10.95 -11.41,-22.36 -15.72,-34.03 -9.97,-26.99 -17.63,-58.37 -19.03,-87.55 -0.25,-5.4 -0.96,-9.91 -0.92,-15.65 0,-3.28 -0.49,-4.61 -0.49,-8.04l0.48 0c0,9.44 10.74,45.24 13.32,52.99 5.07,15.21 11.88,32.63 19.52,46.8l12.07 21.09c4.35,6.92 8.62,13.21 13.49,19.67l10.95 13.67c1.39,1.78 2.81,2.73 4.14,4.39 2.32,2.91 13.88,14.9 16.5,16.65 1.39,-2.06 0.96,-1.84 -0.72,-3.99l-8.93 -12.4c-1.94,-2.9 -3.65,-5.46 -5.5,-8.23 -7.27,-10.87 -14.17,-25.31 -19.16,-37.23l-5.77 -15.07c-0.69,-2 -1.2,-3.1 -1.89,-5.2 -7.46,-22.54 -15.34,-59.44 -15.34,-83.2l0.65 1.25c5.95,14.44 12.44,33.31 20.57,46.69 6.81,11.19 12.06,21.46 20.06,32.05l9.51 12.28c0.88,1 0.98,1.35 1.91,2.35 3.03,3.26 14.29,16.11 16.65,17.92l13.91 12.15c11.34,9.29 23.6,17.32 36.74,23.9 1.57,0.78 4.73,2.66 6.01,3 0.03,-0.15 0.27,-1.02 0.28,-1.14 0.03,-1.42 -0.9,-1.8 -2.12,-2.72l-11.8 -9.52c-1.26,-1.16 -2.04,-2.22 -3.35,-3.27 -3.86,-3.08 -7.65,-6.68 -10.69,-10.63 -3.35,-4.32 -8.1,-8.88 -12.79,-15.15 -6.01,-8.01 -11.27,-16.64 -16.47,-25.22l-7.08 -13.76c-7.45,-18.45 -11.11,-24.4 -16.61,-46.4 -0.71,-2.82 -2.52,-8.59 -2.74,-11.46l12.86 23.6c14.39,23.73 29.7,42.05 50.24,61.08 6.33,5.85 18.46,14.68 25.63,18.91 2.09,1.24 19.41,11.93 21.78,11.86 4.85,-0.12 -7.11,-8.01 -11.4,-11.82l-22.1 -22.43c-5.47,-6.97 -10.98,-13.68 -15.63,-21.31l-5.76 -9.41c-4.72,-7.98 -8.63,-16.02 -12.25,-24.7 -6.07,-14.58 -10.65,-29.54 -14.58,-45.1 -1.33,-5.3 -4.65,-19.66 -4.65,-25.21l1.77 3.93c15.6,39.34 36.2,76.04 63.47,108.49l23.23 24.13c1.28,1.28 1.68,1.56 3.03,2.65l23.23 18.45c9.57,6.39 19.4,12.59 29.91,17.46l16.57 7.13c3.46,1.35 20.89,7.56 24.24,8.04 1.52,0.21 1.43,-0.05 2.15,-0.8 -0.73,-2.01 -5.27,-3.19 -6.97,-3.92 -2.77,-1.2 -5.23,-2.16 -7.88,-3.5 -5.21,-2.62 -9.72,-5.19 -14.85,-7.89 -7.77,-4.11 -19.83,-12.91 -26.57,-18.43 -3.68,-3.01 -17.79,-15.55 -20.6,-18.72l-22.8 -27.87c-18.89,-27.29 -34.73,-58.78 -44.18,-90.84 -0.86,-2.99 -1.71,-5.61 -2.7,-8.66l-4.85 -17.89c-0.65,-2.56 -2.03,-6.84 -2.09,-9.28l7.52 17.12c1.18,2.88 2.52,5.81 3.86,8.45 1.37,2.74 2.5,5.49 3.95,8.37 8.29,16.58 16.94,31.99 27.12,47.25 5.04,7.55 9.77,14.56 15.45,21.49 1.91,2.33 3.51,4.6 5.47,6.85 1.09,1.24 1.71,2.16 2.83,3.32l8.92 10.03c4.2,5.44 10.52,10.51 15.48,15.31 1.29,1.23 1.82,1.92 3.2,2.97l6.57 5.74c13.3,10.6 21.78,16.41 36.61,25.44 2.67,1.61 5.25,2.74 8.14,4.19 5.81,2.9 10.96,5.39 17.22,7.87l27.81 9.15c2.16,0.54 5.38,1.85 7.59,1.92 1.95,0.07 0.65,0.72 1.68,-1.26 -0.75,-1.03 -1.12,-0.95 -2.35,-1.44l-9.14 -3.63c-10,-4 -19.13,-8.9 -28.26,-14.38 -8.78,-5.26 -17.02,-11.2 -24.98,-17.65l-9.09 -7.97c-9.54,-7.61 -16.78,-17.32 -24.82,-26.33 -2.73,-3.06 -4.82,-6.47 -7.39,-9.67 -5.12,-6.37 -9.48,-13.43 -13.66,-20.45 -3.24,-5.47 -6.47,-10.57 -9.29,-16.27 -2.37,-4.79 -7.32,-12.63 -8.38,-17.21 1.17,0.86 3.1,3.9 4.2,5.27l13.26 16.11 29.54 28.72c3.58,3.12 6.93,5.86 10.73,8.7 7.47,5.61 15.07,11.41 23.11,16.19 26.03,15.47 38.12,21.48 66.06,31.53 4.82,1.73 9.5,3.39 14.63,4.8 5.01,1.37 9.72,3.19 15.12,4.3 3.36,0.69 13.75,3.7 16.15,3.75 0.12,-1.47 -0.01,-0.9 0.47,-1.9l-11.58 -5.01c-10.92,-4.56 -23.68,-11.33 -33.92,-17.22 -11.6,-6.68 -19.92,-11.91 -30.71,-19.99 -4.58,-3.44 -18.67,-14.46 -23.15,-19 -5.8,-5.87 -7.99,-6.59 -14.95,-14.9 -0.69,-0.84 -1.32,-1.38 -2.1,-2.15 -3.63,-3.61 -12.57,-14.12 -15.37,-18.26 -1.21,-1.79 -2.36,-3.2 -3.63,-4.9l-10.31 -15.29c-0.97,-1.5 -2.64,-3.81 -3.02,-5.49l31.4 32.55 11.64 9.67c3.24,2.57 6.15,5.05 9.63,7.43l20.65 13.92c10.25,6.61 27.81,15.8 39.08,20.62 14.2,6.07 28.93,11.93 44.02,16.13l13.64 3.89c0.11,-1.46 -0.02,-0.89 0.46,-1.89 -11.42,-6.05 -23.66,-11.42 -35.44,-18.56l-10.99 -7c-2,-1.19 -3.47,-2.28 -5.52,-3.49l-25.74 -19.26c-1.51,-1.19 -3.42,-2.74 -4.85,-4.15l-22.94 -22.05c-2.87,-3.42 -5.36,-6.39 -8.31,-9.7 -6.72,-7.53 -17.26,-22.78 -22.48,-31.52 -1.21,-2.04 -2.18,-3.63 -3.38,-5.62 -2.15,-3.56 -8.41,-15.06 -9.09,-17.92l34.23 43c7.32,8.23 17.57,18.51 25.82,25.8 14.15,12.51 35.82,28.49 51.43,36.21 8.79,4.34 11.07,5.69 21.15,10.11 15.56,6.83 31.01,10.74 47.89,14.17l18.44 2.4 0 -1.89c-13.52,-3.15 -33.79,-10.99 -45.95,-17.06 -16.85,-8.4 -31.65,-18.98 -46.1,-31.11 -4.91,-4.14 -17.54,-15.93 -20.76,-19.98l-8.34 -9.66c-3.21,-3.38 -13.39,-17.03 -15.85,-20.63 -6.06,-8.91 -12.41,-18.39 -17.6,-27.88 -1.13,-2.09 -2.58,-3.91 -3.14,-6.32 1.45,0.97 13.39,16.02 16.68,19.31l24.87 24.87c7.46,7.21 19.38,15.73 27.74,22 11.32,8.5 38.64,23.59 53.46,28.5 8.83,2.93 18.23,6.64 27.85,8.63 6.54,1.35 24.52,5.17 31.29,5.17 -0.05,-2.87 -0.12,-2.07 -5.04,-3.48 -2.55,-0.74 -4.46,-1.28 -7,-2 -5.16,-1.46 -8.61,-3.01 -13.36,-4.65 -8.81,-3.06 -16.58,-7.01 -24.5,-11.02 -10.39,-5.28 -22.9,-13.71 -32.26,-20.8l-14.36 -12.17c-5.95,-6.02 -7.79,-6.73 -15.62,-15.63l-6.39 -6.88c-9.71,-10.9 -26.4,-34.35 -33.2,-46.84 -1.01,-1.83 -2.72,-3.99 -3.16,-5.85 1.36,0.92 1.64,1.68 2.73,2.95 4.82,5.55 8.1,9.54 13.5,14.93l11.61 11.6c7.84,7.93 22.47,19.3 31.65,25.66 6.95,4.82 21.26,13.4 28.77,17.18 19.98,10.07 37.26,15.75 59.24,21.28 8.85,2.23 20.56,4.2 29.32,5.27 3.59,0.45 7.29,0.54 10.42,0.95 3.64,0.47 6.91,0.61 10.78,0.59 3.68,-0.02 6.63,0.49 10.87,0.49 3.96,-0.01 7.91,-0.02 11.85,0 4.1,0.02 6.55,-0.49 10.9,-0.48 8.51,0.03 17.95,-1.7 26.12,-2.31 3.79,-0.28 3.03,0.69 2.77,-2.43 -7.76,0 -14.06,-0.35 -21.81,-0.45l-20.5 -1.77c-6.85,-0.94 -13.14,-1.96 -19.42,-2.84 -6.44,-0.91 -12.35,-2.65 -18.36,-3.9 -9.08,-1.88 -24.58,-7.1 -33.87,-10.65 -4.84,-1.86 -18.24,-7.84 -23.09,-10.55 -2.5,-1.4 -4.94,-2.59 -7.33,-4.03 -7.23,-4.37 -13.35,-7.93 -20.26,-12.9l-18.79 -14.84c-16.78,-14.79 -34.5,-35.97 -45.93,-54.98 -1.06,-1.76 -3.73,-5.51 -4.17,-7.19l10.54 11.25c3.74,3.74 7.12,7.18 10.88,10.9 1.17,1.16 1.68,1.34 2.86,2.36 1.08,0.96 1.76,1.86 2.84,2.85 10.98,10.16 25.13,19.79 37.87,27.97 8.1,5.2 20.4,10.81 28.96,15.1 13.39,6.71 44.91,15.73 59.12,18.08 11.95,1.98 27.89,4.38 39.72,4.33 6.63,-0.03 13.29,0.74 21.8,0.49 2.35,-0.07 2.38,-0.43 4.72,-0.5 6.15,-0.19 8.48,0.32 15.85,-0.73l15.04 -1.54c2.86,-0.26 3.56,0.76 4.17,-1.51 -1.48,-2.03 -3.22,-0.39 -8.72,-1.22l-19.21 -0.68c-9.83,-0.49 -26.58,-2.86 -36.29,-4.45 -9.91,-1.63 -32.07,-7.74 -40.42,-10.76l-21.64 -8.67c-5.88,-2.43 -11.34,-5.64 -16.93,-8.64l-9.59 -5.57c-2.26,-1.38 -4.29,-2.68 -6.36,-4.06 -8.13,-5.44 -15.76,-11.24 -23.1,-17.63 -15.65,-13.64 -24.2,-23.75 -36.45,-39.82 -0.84,-1.11 -1.67,-1.86 -2.03,-3.19l23 20.1c21.87,17.19 44.6,29.32 71.32,37.17 43.41,12.74 88.51,8.08 129.91,-6.4l23.36 -9.34c5.11,-2.46 6.09,-1.49 5.37,-4.58 -4.43,1.03 -8.7,2.66 -13.28,3.79 -4.55,1.13 -8.92,2.4 -13.68,3.36 -9.32,1.87 -19.4,4 -29.87,4.71 -2.04,0.14 -5.54,0.4 -7.8,0.73l-16.36 0.65c-2.68,-0.23 -4.69,-0.45 -8.09,-0.44 -8.02,0.04 -22.63,-2.34 -30.5,-4.07 -23.21,-5.11 -36.7,-12.04 -54.59,-22.62 -4.29,-2.53 -16.54,-11.5 -19.94,-14.65 -1.58,-1.48 -2.98,-2.47 -4.49,-4.03 -1.63,-1.66 -2.86,-2.36 -4.5,-4.02 -1.57,-1.58 -3.19,-2.84 -4.38,-4.62l10.89 7.11c3.7,2.46 18.47,11.22 22.94,13.06l12.86 5.61c17.49,7 36.56,11.67 58.96,13.51 5.91,0.49 11.2,0.01 17.02,0.02 12.06,0.02 20.88,-1.12 32.83,-3.18 5.61,-0.97 9.92,-2 15.29,-3.17 11.86,-2.57 29.22,-8.82 40.89,-13.6 1.99,-0.82 4.24,-1.88 6.23,-2.77 2.16,-0.98 4.49,-1.84 6.62,-2.85l-0.97 -1.88c-8.55,1.97 -16.89,5.15 -27.73,7.29 -5.16,1.02 -9.43,1.9 -14.75,2.78 -4.96,0.82 -10,1.16 -15.63,1.89 -20.48,2.65 -48.01,0.12 -64.84,-4.11 -21.9,-5.5 -41.79,-14.53 -59.8,-27.83 -6.49,-4.79 -23.96,-18.95 -28.02,-25.04 1.7,0.4 3.93,2.04 5.53,2.99l17.52 9.49c15.71,7.86 35.58,14.94 53.09,18.43 10.16,2.04 14.46,2.13 23.68,3.33 2.5,0.33 5.71,0.09 8.59,0.41 9.07,1.02 23.78,-0.51 32.88,-1.82 18.31,-2.63 38.91,-8.87 54.81,-16.73 3.25,-1.61 20.17,-9.7 22,-11.63 0.97,-1.04 0.49,0.68 0.73,-1.62 -1.79,-0.87 -3.45,0.33 -5.47,1.15 -2.13,0.85 -3.66,1.51 -5.82,2.22l-12.09 4.02c-3.97,1.33 -8.57,2.62 -12.64,3.46 -4.35,0.9 -9.09,2.1 -13.36,2.75 -51.42,7.84 -91.56,-4.04 -132.13,-31.52 -1.78,-1.2 -3.04,-2.07 -4.7,-3.33 -1.94,-1.46 -7.89,-5.61 -8.94,-7.18l20.3 8.59c14.9,5.32 30,9.75 46.11,11.7 4.36,0.52 9.25,0.82 13.29,1.37 3.8,0.52 10.46,0.13 14.56,0.13 27.17,0.01 58.37,-8.57 81.64,-20.21l9.62 -5.06c2.76,-1.38 12.13,-5.56 9.04,-7.1 -0.71,-0.36 -16.6,6.06 -18.92,6.69 -3.95,1.09 -7.49,2.37 -11.36,3.33 -35.14,8.69 -66.95,9.3 -101.7,-2.33 -6.29,-2.11 -33.1,-13.45 -39.37,-18.9l23.12 6.26c7.91,1.87 16.75,3.36 25.34,4.5 36.9,4.87 67.67,-0.53 100.27,-15.03 6.46,-2.87 12.82,-6.67 18.74,-10.62 1.55,-1.03 2.59,-1.86 4.2,-2.92 1.76,-1.16 2.77,-1.94 4.41,-3.16 1.57,-1.18 2.8,-2.11 4.34,-3.25 1.61,-1.21 2.63,-2.13 4.32,-3.25l-0.97 -1.88c-5.1,2.69 -9.92,5.2 -15.28,7.89 -14.22,7.11 -29.99,11.26 -45.66,13.56 -3.11,0.46 -7.18,0.54 -10.77,1.07 -17.19,2.58 -46.37,-2.72 -62.14,-8.03l-12.96 -4.56c-0.7,-0.27 -1.21,-0.43 -2.1,-0.75 -1.45,-0.52 -1.18,-0.28 -2.17,-1.14 4.87,0 9.69,0.9 14.66,0.96 15.45,0.19 30.37,-1.23 45.15,-4.16l17.12 -4.67c5.23,-1.82 10.41,-3.77 15.28,-6.03 9.72,-4.51 19.15,-9.52 27.7,-15.87 2.18,-1.63 4.06,-2.92 6.29,-4.6 1.33,-1 5.26,-4 5.96,-4.95 -0.57,-0.63 -0.51,-0.6 -0.95,-1.42l-13.11 6.79c-4.65,2.34 -9.23,4.18 -14.22,6.14 -8.42,3.31 -21.99,7.11 -31.96,8.3 -22.01,2.64 -42.58,1.65 -63.87,-3.7 -1.47,-0.37 -2.6,-0.63 -4.17,-1.05 -0.65,-0.17 -0.9,-0.23 -1.85,-0.52l-2.03 -0.8c4.01,0 7.7,0.9 11.7,0.34 12.99,-1.81 16.27,0.05 33.97,-4.41 14.39,-3.64 24.95,-7.8 36.91,-13.77 8.31,-4.16 16,-9.06 23.52,-14.37 4.68,-3.3 9.87,-7.06 14.1,-11.01 1.37,-1.27 1.64,-1.7 3.23,-2.93 1.46,-1.13 2.1,-2.11 3.45,-3.19 2.66,-2.13 11.17,-10.21 12.85,-12.72 -2.67,-1.79 -3.25,-0.02 -6.15,1.9 -2.1,1.39 -4.04,2.86 -6.15,4.27l-13 7.85c-10.69,6.34 -24.06,11.95 -36.11,15.52 -2.99,0.89 -5.1,1.61 -8.18,2.24 -2.87,0.59 -5.43,1.34 -8.57,1.86l-18.53 2.3c-6.13,0.68 -13.98,0.25 -20.11,-0.61l-8.73 -1.69c11.62,0 30.86,-6.9 41.56,-11.51 2.66,-1.15 4.99,-2.06 7.55,-3.33l23.17 -13.78 15.42 -11.58c6.9,-5.61 12.85,-12.05 19.26,-18.18 1.74,-1.67 1.95,-1.18 1.52,-3.2 -3.49,0.29 -8.21,4.89 -11.18,6.82 -3.79,2.48 -7.33,4.49 -11.17,6.83 -15.28,9.3 -34.73,16.84 -52.04,20.42 -10.86,2.24 -20.46,2.87 -33.61,2.87l0 -0.47c12.44,0 36.87,-9.19 48.79,-15.16 9.44,-4.72 18.29,-10.14 26.8,-16.3l12.2 -9.6c3.26,-2.63 20.92,-18.81 21.64,-21.47 -1.96,-1.63 -4.47,1.24 -7.59,3.32 -13.85,9.24 -28.16,16.5 -43.78,22.54 -3.32,1.28 -6.45,2.24 -10.01,3.24 -3.33,0.95 -7.25,2.36 -10.63,2.64l20.64 -13.93c8.81,-6.59 16.72,-14.19 24.47,-21.95 1.64,-1.63 4.99,-4.08 5.57,-6.28l-1.03 -0.85c-1.67,0.37 -7.24,4.47 -9.19,5.78 -8.51,5.7 -20.5,12.39 -30.1,16.32 -11.59,4.75 -22.68,8.84 -35.27,11.17 -4.62,0.85 -8.77,1.69 -13.93,1.69 0.87,-3.76 6.64,-14.25 8.52,-18.48 2.78,-6.27 5.27,-12.47 7.93,-19.08 1.3,-3.27 2.6,-6.14 3.75,-9.51 1.17,-3.48 2.29,-6.75 3.63,-10.11 6.64,-16.77 14.09,-45.35 17.97,-63.5 1.66,-7.78 7.94,-38.5 7.94,-46.54 -1.47,-0.12 -0.9,0.01 -1.89,-0.47 -0.72,1.35 -1.22,2.86 -1.9,4.26l-9.78 22.43c-4.88,10.16 -16.61,36.13 -20.81,43.14 -4.89,8.17 -8.49,16.87 -13.37,25l-14.15 24.22c-0.89,1.5 -1.47,2.27 -2.38,3.78l-7.73 12.17c-13.91,20.88 -28.41,41.78 -45.11,60.52l-22.97 25.34c-4.38,4.38 -8.42,8.41 -12.79,12.79 -6.48,6.49 -13.56,12.41 -20.37,18.48 -1.23,1.09 -2.09,1.74 -3.34,2.82 -1.16,1.03 -2.36,2.02 -3.62,3.01 -4.93,3.9 -9.23,7.48 -14.2,11.37l-18.28 13.47c-25.31,16.75 -41.89,27.09 -68.53,40.42l-30.88 14.11c-10.8,4.42 -21.26,8.85 -32.45,12.55l-39.32 12.33c-20.78,6.05 -41.2,10.75 -62.89,14.31l-67.68 9.05c-9.96,0.55 -20.09,1.78 -29.86,1.89 -4.47,0.06 -12.78,0.99 -18.45,0.97 -12.14,-0.04 -39.96,1.78 -50.41,0.2 -4.04,-0.61 -8.45,-0.06 -12.61,-0.19 -2.47,-0.07 -3.22,-0.51 -6.12,-0.5l-30.81 -1.4c-3.71,-0.19 -7.81,-0.76 -11.84,-0.96l-57.94 -6.49c-58.04,-7.61 -111.58,-21.99 -165.58,-39.99 -36.57,-12.18 -69.32,-22.48 -108.62,-18.02 -18.86,2.14 -32.53,6.68 -49.04,14.92 -3.04,1.52 -5.57,3.31 -8.2,5.06 -2.74,1.83 -4.7,3.32 -7.38,5.41 -2.64,2.08 -4.38,3.88 -6.89,5.89 -6.14,4.89 -15.84,17.95 -19.87,24.67 -3.29,5.51 -9.37,16.22 -9.92,22.77 2.94,0.68 2.42,-0.97 6.74,-7.49 1.12,-1.69 1.97,-2.84 3.14,-4.42 14.73,-19.71 35.88,-34.08 60.32,-40.11 29.86,-7.36 63.94,-1.03 91.94,10.2 3.69,1.47 7.4,3.5 11.24,4.4 -0.85,3.16 -5.7,9.26 -7.55,12.33l-17.36 32.87c-7.15,17.23 -14.06,35.78 -15.38,55.2l-0.45 18.97 1.89 0c1.25,-5.33 2.25,-11.97 3.69,-17.16 5.67,-20.34 16.33,-39.56 28.94,-56.33 5.98,-7.97 12.24,-16.22 19.37,-23.26 1.21,-1.19 1.41,-1.53 2.41,-2.8 2.08,-2.61 5.48,-6.21 8.13,-7.98 1.23,0.29 1.39,0.43 2.36,0.95l-14.19 22.29c-12.03,19.96 -21.02,41.28 -26.26,64.2 -1.91,8.36 -3.64,19.12 -3.61,28.13 0.03,5.65 -1.4,8.45 2.38,8.54 0.05,-2.06 0.97,-6.62 1.42,-8.54 2.46,-10.5 5.59,-20.73 10.25,-30.47 1.19,-2.48 2.32,-4.61 3.48,-6.94l7.39 -12.99c6.35,-9.67 17.98,-26.34 26.35,-34.75 3,-3 7.1,-8.36 10.32,-10.53zm-1059.69 577.14c-9.06,8.06 -20.2,12.98 -32.4,10.02 -14.91,-3.27 -23.38,-14.61 -27.13,-28.85 -4.17,-15.85 -2.43,-34.43 1.66,-50.13 4.25,-16.31 12.04,-33.49 23.31,-46.15 9.79,-11.01 22.9,-19.12 38.11,-16.9 10.56,1.54 18.22,7.58 23.13,16.91 5.24,10.01 6.67,22.51 6.39,33.67 -0.61,24.58 -9.84,54.16 -25.36,73.39 3.08,4.2 7.66,6.32 12.87,5.7 16.44,-2.23 24.64,-26.12 28.57,-39.71 1.15,-13.61 3.86,-27.35 7.14,-40.6 3.41,-13.8 7.56,-27.48 12.23,-40.91 2.28,-6.56 9.2,-10.02 15.86,-8.45l0.33 0 0.02 0c7.28,1.65 11.36,9.22 9.12,16.26 -3.66,12.52 -7.38,25.03 -10.8,37.62 -3.33,12.26 -6.52,24.73 -8.78,37.23 -0.93,5.2 -1.72,10.48 -2.13,15.76 -0.31,4.05 -0.44,8.37 0.14,12.4 0.76,5.35 2.91,10.77 9.2,10.4 9.67,-0.57 19.41,-24.6 22.39,-32.04 7.1,-17.67 12.63,-36.32 17.9,-54.6 1.26,-5.32 2.81,-10.59 4.44,-15.82 0.01,-0.52 0.31,-0.98 0.31,-1.22l0 -0.05 0.01 -0.04c1.84,-5.84 3.74,-11.66 5.72,-17.45 2.24,-6.57 9.2,-10.02 15.87,-8.45l0.31 0 0.04 0c7.21,1.64 11.34,9.21 9.43,16.25 -3.72,12.39 -7.49,24.75 -11,37.19 -3.36,12.01 -6.58,24.23 -8.86,36.49 -0.96,5.14 -1.75,10.35 -2.16,15.56 -0.33,4.08 -0.44,8.4 0.13,12.46 0.77,5.53 2.92,11.22 9.24,11.72 6.98,0.56 13.6,-9.47 16.64,-14.6 5.1,-8.6 9.3,-18.8 12.38,-28.29 1.35,-13.15 4.02,-26.34 7.21,-39.16 3.28,-13.21 7.24,-26.29 11.64,-39.17 2.24,-6.57 9.21,-10.02 15.87,-8.45l0.31 0 0.04 0c7.21,1.64 11.34,9.21 9.43,16.25 -3.74,12.52 -7.52,25.03 -10.98,37.62 -3.38,12.24 -6.59,24.71 -8.88,37.2 -0.95,5.2 -1.74,10.49 -2.15,15.76 -0.32,4.05 -0.45,8.37 0.13,12.4 0.76,5.35 2.91,10.79 9.2,10.44 11.31,-0.62 22.9,-32.71 26.07,-41.46 3.94,-10.89 7.41,-21.98 10.69,-33.09 2.5,-8.45 4.83,-16.96 7.33,-25.41 1.88,-6.87 3.72,-13.76 5.71,-20.61 1.66,-5.72 7.02,-9.74 12.98,-9.74 4.26,0 8.13,2.08 10.67,5.45 2.53,3.36 3.47,7.68 2.32,11.76 -5.3,18.88 -10.01,37.92 -14.63,56.99 -4.27,17.69 -8.47,35.42 -13.09,53.02 20.97,-9.46 32.2,-20.1 39.37,-42.32 -0.08,-0.53 -0.03,-1.08 0.11,-1.6 2.62,-9.08 4.87,-18.3 7.06,-27.49 2.2,-9.32 4.32,-18.67 6.57,-27.99 4.09,-14.62 16.46,-27.53 31.64,-30.35 8.31,-1.54 17.61,-0.57 23.79,5.75 6.39,6.52 6.84,16.02 4.79,24.43 -0.31,1.83 -1.85,3.41 -3.77,3.42 -3.04,0.33 -5.43,-2.06 -5.09,-5.11 1.07,-6.7 0.83,-18.28 -7.96,-19.31 -5.94,-0.69 -11.78,3.87 -15.1,8.37 -4.44,6.03 -6.2,13.75 -4.22,21.04 3.26,12 13.69,21.82 21.45,31.14 9.56,11.5 15.88,22.75 14.38,38.41 -0.88,9.2 -4.41,17.57 -10.49,24.5 1.22,0.22 2.6,0.2 3.82,0.2 16.68,-2.28 24.89,-26.87 28.86,-40.84 0.95,-17.74 6.22,-36.65 14.2,-52.52 6.58,-13.12 17.19,-28.23 31.01,-34.38 7.08,-3.15 16.07,-3.55 23.21,-0.4 8.67,3.83 12.42,11.73 12.12,20.99 -0.47,14.48 -7.54,28.32 -17.18,38.88 -9.06,9.92 -21.75,18.39 -35.17,20.67 -1.98,11.55 -4.92,36.92 7.48,43.84 9.78,5.45 20.54,-0.99 27.72,-7.75 10.32,-9.71 18.18,-24.02 22.56,-37.4 0.36,-1.75 2.09,-2.78 3.82,-2.45 2.33,0.02 3.84,2.36 3.12,4.53 -7.45,27.21 -33.67,69.95 -67.61,58.54 -14.18,-4.76 -21.25,-17.23 -23.99,-31.2 -5.71,12.76 -15.7,28.08 -31.07,28.68 -3.85,0 -8.11,-0.46 -11.72,-1.86 -9.16,5.64 -19.99,7.8 -30.53,5.34 -11.13,-2.59 -18.42,-9.63 -19.41,-21.12 -0.74,-8.37 2.25,-18.51 7.5,-25.04 1.33,-1.66 4.06,-2.41 5.83,-1 2.23,1.6 2.8,4.64 1,6.8 -3.74,4.06 -5.95,10.39 -5.95,15.88 0,5.64 2.28,10.76 8.02,12.46 5.25,1.56 11.32,0.61 16.14,-1.96 -2.39,-1.95 -3.86,-4.76 -3.86,-7.88 0,-5.57 4.25,-9.83 9.81,-9.83 2.06,0 3.9,0.78 5.51,1.98 0.54,-2.7 0.48,-5.21 0.22,-7.97 -1.43,-10.32 -7.65,-18.45 -14.24,-26.15 -6.59,-7.7 -13.82,-15.26 -18.04,-24.61 -2.37,9.18 -4.96,18.3 -7.62,27.39 0.12,0.62 0.09,1.25 -0.07,1.86 -3.01,11.13 -6.54,21.13 -13.74,30.34 -9.57,12.24 -23.56,20.3 -37.66,26.24 -3.39,12.16 -7.06,24.32 -11.5,36.13 -3.65,9.69 -7.95,19.55 -13.43,28.35 -4.29,6.86 -9.64,13.6 -16.42,18.15 -6.19,4.17 -12.97,6.08 -20.45,5.6 -8.69,-0.57 -16.03,-4.5 -20.44,-12.08 -4.4,-7.56 -4.86,-16.96 -3.24,-25.37 2.02,-10.46 7.31,-20.25 14.36,-28.17 8.71,-9.76 19.98,-16.61 32.39,-20.61 4.1,-1.17 8.17,-2.4 12.2,-3.74 1.7,-6.79 3.39,-13.58 4.82,-20.42 -3.12,6.34 -7.14,12.71 -12.26,17.47 -5.11,4.74 -11.25,7.73 -18.32,7.31 -17.6,-1.04 -23.25,-16.2 -24.65,-31.49 -3.56,7.98 -8.23,16.3 -14.28,22.53 -5.93,6.1 -13.26,10.14 -21.97,8.96 -21.96,-2.99 -25.47,-25.95 -25.06,-44.41 -3.48,10.49 -8.11,21.67 -14.59,30.47 -2.95,4.03 -6.53,7.85 -10.81,10.48 -4.06,2.49 -8.47,3.74 -13.25,3.46 -16.61,-0.98 -22.76,-14.34 -24.58,-29.05 -5.87,11.86 -15.51,25 -29.91,25.56 -7.1,0.28 -14.22,-1.85 -19.37,-6.85zm717 -89.62c7.2,-20.47 14.11,-41.03 21.62,-61.39 7.09,-19.24 14.73,-38.6 23.94,-56.92 4.63,-9.16 10.35,-17.5 17.66,-24.68 -8.18,1.77 -16.41,2.61 -24.78,2.85 -7.7,0.21 -15.35,-0.1 -23.04,-0.29 -13.47,-0.34 -27,-0.31 -39.16,6.36 -11.07,6.09 -17.4,20.57 -18.46,32.75 -1.16,13.32 3.42,26.67 16.65,31.92 3.8,-4.14 8.82,-8.14 14.36,-9.53 4,-1 8.2,-0.53 11.31,2.38 2.09,2.11 2.9,5.16 2.22,8.03 -0.69,3.01 -2.8,5.29 -5.55,6.52 2.44,1.63 4.05,4.17 4.12,7.18 0.09,2.89 -1.28,5.67 -3.7,7.3 -3.42,2.32 -7.48,2.06 -11.17,0.41 -5.04,-2.28 -9.27,-6.99 -12.34,-11.5 -18.74,-5.26 -27.89,-20.62 -27.58,-39.42 0.27,-15.56 7.59,-34.35 20.95,-43.23 15.76,-10.48 34.73,-9.73 52.87,-9.22 10.32,0.29 20.57,0.55 30.87,-0.36 11.55,-1.01 22.58,-3.45 33.31,-7.89 2.05,-0.85 4.03,-1.85 6.16,-2.49 0.03,-0.28 0.19,-0.38 0.55,-0.39 9.35,-3.64 19.53,-5.31 29.53,-4.32 8.44,0.84 16.91,3.63 23.68,8.83l0 0.01 0.03 0.01c0.84,0.85 0.65,1.71 0.04,2.62 -1.57,2.32 -2.94,4.98 -4.17,7.48 -1.93,3.89 -3.71,7.87 -5.43,11.85 -4.82,11.19 -9.17,22.65 -13.3,34.12 -5.16,14.37 -9.92,28.9 -14.32,43.52 -4.72,15.72 -9.03,31.59 -12.72,47.59 -3.52,15.25 -6.52,30.75 -8.44,46.29 -1.6,12.94 -2.59,26.62 -1.54,39.64 1.4,17.22 6.88,37.89 27.95,37.89l0.17 0 0.1 0.14c2.24,3.6 -2.92,7.84 -5.45,9.57 -5.35,3.64 -12.39,6.03 -18.77,6.93 -7.32,1.05 -15.13,0.36 -21.66,-3.38 -8.11,-4.66 -12.24,-12.84 -13.99,-21.77 -2.21,-11.2 -2.38,-23.25 -1.77,-34.62 0.75,-13.7 2.69,-27.45 5.19,-40.93 -11.07,-1.15 -22.24,-4.15 -32.73,-7.81 -4.52,12.49 -9.41,24.91 -14.98,36.97 -5.17,11.18 -11,22.21 -17.88,32.44 -11.82,17.56 -27.27,33.42 -48.08,39.56 -21.7,6.4 -43.34,1.47 -58.51,-15.52 -15.94,-17.86 -19.94,-43.31 -16.09,-66.32 4.26,-25.4 19.23,-45 43.32,-54.38 12.75,-4.97 26.63,-6.51 40.24,-5.81 16.66,0.86 33.24,5.06 48.77,11.01zm148.02 1.39c2.53,-5.5 5.25,-10.93 8.23,-16.17 3.21,-5.61 6.83,-11.19 11.04,-16.1 6.31,-7.35 15.13,-14.32 25.43,-12.14 17.8,3.77 17.42,27.61 15.98,42.19 4.86,-10.47 10.91,-21.79 18.44,-30.4 5.84,-6.69 13.8,-13.01 23.26,-11.8 13.14,1.69 18.4,10.34 18.94,22.88 0.31,6.76 -0.71,13.88 -2.05,20.49 -1.54,7.74 -3.65,15.4 -5.88,22.96 -2.25,7.61 -4.65,15.17 -6.93,22.78 -1.93,6.52 -3.86,13.22 -5.11,19.91 -0.8,4.28 -1.6,10.03 -0.53,14.31 0.89,3.52 2.94,5.62 6.62,6.03 3.08,0.35 6.12,-1.25 8.51,-3.05 3.43,-2.59 6.44,-6.23 8.93,-9.71 6.46,-9.06 11.59,-20.24 15.14,-30.78 2.7,-17.23 8.65,-35.34 16.92,-50.7 6.63,-12.32 16.99,-26.81 30.24,-32.56 7.01,-3.04 14.98,-3.15 21.56,1.02 7.9,5.03 11.36,14.47 12.61,23.4 1.78,-6.03 3.84,-11.96 5.92,-17.89 2.29,-6.55 9.2,-10.03 15.86,-8.45l0.33 0 0.04 0c7.25,1.65 11.34,9.22 9.1,16.26 -3.62,12.38 -7.35,24.74 -10.8,37.18 -3.33,12.01 -6.51,24.23 -8.78,36.49 -0.93,5.14 -1.73,10.35 -2.13,15.56 -0.31,4.08 -0.42,8.4 0.14,12.46 0.76,5.53 2.93,11.22 9.25,11.72 10.92,0.88 21.68,-23.62 25.16,-32.29l23.97 -87.96c1.57,-5.74 6.7,-9.74 12.67,-9.74 4.13,0 7.97,1.83 10.49,5.12 2.5,3.29 3.26,7.47 2.18,11.45l-11.1 40.29c3.31,-6.87 6.83,-13.66 10.64,-20.25 4,-6.9 8.4,-13.74 13.43,-19.93 6.66,-8.22 17.28,-18.79 28.94,-16.99 13.19,2.02 18.53,10.8 19.13,23.46 0.32,6.77 -0.7,13.88 -2.01,20.51 -1.54,7.71 -3.65,15.34 -5.88,22.88 -2.25,7.56 -4.67,15.07 -6.93,22.62 -1.95,6.47 -3.89,13.12 -5.16,19.75 -0.82,4.23 -1.64,9.93 -0.61,14.17 0.85,3.48 2.89,5.56 6.52,5.96 5.3,0.6 10.67,-4.15 13.98,-7.76 5.46,-6 9.95,-13.81 13.36,-21.14l47.45 -176.31c1.36,-5.79 6.79,-9.75 12.67,-9.75 8.65,0 14.53,8.36 12.37,16.56l-26.27 99.16c8.05,-14.72 22.04,-34.44 40.94,-29.16 8.58,2.4 13.43,9.56 16.01,17.72 3.2,10.17 3.13,22.32 1.99,32.84 -2.6,23.79 -12.33,52.15 -26.92,71.23 2.45,5.5 7.78,9 13.84,7.57 7.82,-1.66 14.38,-10.65 18.24,-17.08 4.9,-8.19 8.96,-17.9 11.55,-27.06 2.67,-17.33 8.59,-35.45 16.88,-50.9 6.64,-12.37 17.03,-26.95 30.33,-32.72 7.01,-3.04 14.97,-3.15 21.55,1.02 7.9,5.03 11.38,14.47 12.62,23.4 1.78,-6.03 3.83,-11.96 5.92,-17.89 2.29,-6.55 9.19,-10.02 15.86,-8.45l0.33 0 0.03 0c7.26,1.65 11.35,9.22 9.1,16.26 -3.62,12.38 -7.34,24.74 -10.8,37.18 -3.32,12.01 -6.52,24.23 -8.76,36.49 -0.95,5.14 -1.74,10.35 -2.14,15.56 -0.32,4.08 -0.44,8.4 0.14,12.46 0.77,5.53 2.92,11.22 9.23,11.72 12.01,0.97 23.84,-28.29 27.3,-37.85l45.31 -168.31c1.35,-5.79 6.77,-9.75 12.66,-9.75 8.64,0 14.58,8.31 12.68,16.56l-34.28 127.2c3.33,-6.98 6.86,-13.87 10.69,-20.57 4,-7.01 8.44,-13.97 13.5,-20.26 6.8,-8.48 17.52,-19.15 29.49,-17.32 13.15,2.01 18.39,10.82 18.94,23.42 0.31,6.77 -0.72,13.88 -2.05,20.51 -1.54,7.71 -3.65,15.34 -5.89,22.87 -2.24,7.57 -4.65,15.08 -6.92,22.64 -1.93,6.46 -3.87,13.12 -5.11,19.75 -0.81,4.24 -1.6,9.94 -0.53,14.18 0.89,3.51 2.96,5.57 6.62,5.98 3.02,0.34 6.02,-1.19 8.38,-2.93 3.38,-2.5 6.38,-6.01 8.85,-9.39 6.4,-8.78 11.49,-19.68 14.99,-29.98 1.35,-13.09 4.01,-26.23 7.21,-38.99 3.27,-13.14 7.2,-26.16 11.6,-38.98 2.25,-6.57 9.2,-10.02 15.86,-8.45l0.31 0 0.05 0c7.2,1.64 11.35,9.21 9.42,16.25 -3.74,12.52 -7.5,25.03 -10.98,37.62 -3.38,12.24 -6.59,24.71 -8.86,37.2 -0.95,5.2 -1.76,10.49 -2.17,15.76 -0.31,4.05 -0.45,8.37 0.13,12.4 0.75,5.35 2.91,10.79 9.2,10.44 11.31,-0.62 22.9,-32.71 26.07,-41.46 3.94,-10.89 7.42,-21.98 10.7,-33.09 2.49,-8.45 4.82,-16.96 7.32,-25.41 1.88,-6.87 3.74,-13.76 5.72,-20.61 1.66,-5.72 7.02,-9.74 12.99,-9.74 4.24,0 8.13,2.08 10.66,5.45 2.54,3.36 3.47,7.68 2.31,11.76 -5.3,18.88 -10,37.92 -14.63,56.99 -4.27,17.69 -8.45,35.42 -13.09,53.02 22.62,-10.21 33.46,-21.7 40.45,-45.84 0.73,-1.82 2.51,-2.75 4.42,-2.75l0.02 0 0.02 0.01c2.29,0.38 3.71,2.95 3.11,5.15 -3.01,11.13 -6.54,21.13 -13.74,30.34 -9.57,12.24 -23.55,20.3 -37.67,26.24 -3.36,12.16 -7.04,24.32 -11.49,36.13 -3.65,9.69 -7.95,19.55 -13.43,28.35 -4.27,6.86 -9.64,13.6 -16.4,18.15 -6.21,4.17 -12.98,6.08 -20.47,5.6 -8.69,-0.57 -16.03,-4.5 -20.44,-12.08 -4.4,-7.56 -4.85,-16.96 -3.24,-25.37 2.02,-10.46 7.31,-20.25 14.38,-28.17 8.69,-9.76 19.97,-16.61 32.37,-20.61 4.1,-1.17 8.17,-2.4 12.2,-3.74 1.7,-6.79 3.39,-13.58 4.82,-20.42 -3.11,6.34 -7.14,12.71 -12.27,17.47 -5.09,4.74 -11.24,7.73 -18.31,7.31 -18.44,-1.09 -23.74,-17.71 -24.8,-33.55 -7.91,15.8 -22.88,37.88 -43.09,33.54 -53.54,-11.5 17.41,-122.48 -4.43,-126.82 -5.59,-1.11 -12.2,7.16 -15.07,10.97 -3.2,4.28 -6.06,8.9 -8.73,13.53 -3.17,5.51 -6.11,11.17 -8.91,16.88 -6.05,12.33 -11.52,25.03 -16.61,37.8 -4.34,10.9 -8.48,21.97 -12.13,33.13 -0.04,0.35 -0.32,0.49 -0.32,0.57l0 0.05 -1.27 4.47c-1.33,5.97 -6.65,9.75 -12.68,9.75 -3.72,0 -7.16,-1.59 -9.62,-4.37 -2.22,-2.51 -3.42,-5.75 -3.42,-9.08 -6.19,7.98 -14.63,14.63 -25.36,13.13 -24.16,-3.39 -26.14,-31.14 -24.85,-50.82 -7.69,19.98 -25.23,57.25 -50.65,50.18 -12.76,-3.56 -17.05,-17.47 -18.23,-29.29 -3.57,7.56 -8.19,15.24 -14.16,21.05 -6.06,5.91 -13.47,9.68 -22.08,9.2 -6.98,-0.56 -13.4,-3.16 -18.08,-8.43 -2.74,2.37 -5.81,4.24 -9.04,5.86 -7,2.96 -15,3.31 -21.73,-0.57 -8.06,-4.64 -11.69,-13.75 -13.06,-22.57l-4.36 15.96c-1.33,5.97 -6.63,9.75 -12.66,9.75 -8.29,0 -14.07,-7.64 -12.87,-15.53 -3.86,4.77 -8.48,9.3 -13.84,12.28 -5.54,3.08 -11.49,4.27 -17.74,2.92 -12.96,-2.79 -18.9,-11.54 -20.07,-24.27 -1.23,-13.31 2.74,-29.34 6.35,-42.11 2.06,-7.29 4.34,-14.5 6.58,-21.73 1.94,-6.26 3.92,-12.59 5.46,-18.97 0.99,-4.12 2.14,-9.49 1.77,-13.74 -0.24,-2.79 -1.19,-5.39 -4.21,-6 -5.93,-1.19 -13.08,8.15 -16.02,12.2 -3.41,4.69 -6.46,9.75 -9.3,14.81 -3.34,5.97 -6.45,12.1 -9.4,18.28 -6.24,13.02 -11.89,26.41 -17.12,39.87 -4.16,10.67 -8.19,21.62 -11.54,32.57 -1.64,5.4 -6.68,9.1 -12.34,9.1 -6.88,0 -12.65,-5.46 -13.1,-12.24 -6.17,7.62 -14.36,13.68 -24.67,12.24 -24.16,-3.39 -26.12,-31.14 -24.84,-50.82 -7.7,19.98 -25.24,57.25 -50.66,50.18 -13.76,-3.83 -17.7,-19.66 -18.48,-32.28 -7.9,15.74 -22.54,37.24 -42.69,32.91 -13.33,-2.86 -19.05,-12.37 -20.2,-25.32 -0.62,-6.9 0.07,-14.13 1.16,-20.94 1.24,-7.72 3.1,-15.37 5.17,-22.9 2.04,-7.45 4.32,-14.82 6.59,-22.2 1.91,-6.23 3.87,-12.52 5.43,-18.84 0.89,-3.64 2.13,-8.99 1.71,-12.73 -0.28,-2.62 -1.37,-4.24 -4.2,-3.88 -11.26,1.4 -22.06,26.37 -25.85,35.36 -4.31,10.25 -8.06,20.79 -11.54,31.35 -3.41,10.28 -6.54,20.64 -9.58,31.03 -1.8,6.13 -3.68,12.24 -5.39,18.39 -1.94,5.8 -7.11,10.06 -13.3,10.06 -9.49,0.32 -16.5,-9.22 -13.3,-18.18 3.84,-11.6 7.63,-23.24 11.22,-34.93 3.55,-11.59 6.96,-23.29 9.81,-35.08 1.23,-5.03 2.35,-10.11 3.25,-15.21 0.71,-4.07 1.32,-8.26 1.52,-12.39 0.15,-3.15 0.36,-11.2 -3.71,-12.31 -4.92,-1.34 -10.87,6.7 -13.22,10.01 -2.88,4.09 -5.44,8.49 -7.8,12.89 -2.87,5.32 -5.53,10.77 -8.06,16.27 -5.58,12.14 -10.63,24.6 -15.35,37.09 -4.24,11.19 -8.24,22.49 -11.94,33.86l-2.53 8.86c-1.33,5.97 -6.65,9.75 -12.67,9.75 -8.57,0 -14.93,-8.29 -12.68,-16.57l31.71 -116.36c1.57,-5.74 6.71,-9.74 12.66,-9.74 4.13,0 7.99,1.83 10.49,5.12 2.52,3.28 3.28,7.47 2.19,11.45l-7.52 27.53zm-997.29 88.19c-5.1,-4.29 -10.82,-8.86 -16.75,-11.86 -4.71,-2.37 -9.88,-3.87 -15.13,-2.5 -22.43,5.88 -23.18,44.47 -0.08,43.45 14.97,-0.66 25.75,-17.17 31.96,-29.09zm118.5 -6.1c-1.98,-1.8 -3.08,-4.45 -3.45,-7.06 -0.49,-3.33 0.07,-6.8 1.4,-9.87 1.49,-3.42 4.03,-6.56 7.27,-8.44 2.84,-1.65 6.23,-2.29 9.31,-0.93 0.81,0.27 1.66,0.77 2.32,1.36 7.86,-16.59 14.11,-37.43 15.68,-55.65 0.9,-10.28 1.17,-30.99 -12.16,-33.88 -9.23,-2 -16.76,7.36 -21.06,14.21 -7.07,11.32 -11.96,25.89 -15.17,38.79 -1.79,7.21 -3.21,14.55 -4.17,21.91 -0.87,6.6 -1.4,13.35 -1.3,20 0.1,6.26 0.93,20.23 7.66,23.39 4.89,2.45 10.03,-0.51 13.67,-3.83zm234.95 23.63c-0.77,0.25 -1.53,0.51 -2.31,0.76 -10.02,2.67 -19.14,7.57 -26.49,14.92 -5.91,5.9 -10.47,13.22 -13,21.18 -1.87,5.87 -2.86,13.03 -1.3,19.08 1.08,4.22 3.64,8.28 8.39,8.57 8.82,0.53 15.33,-11.14 18.59,-17.78 3.29,-6.66 5.95,-13.78 8.33,-20.81 2.88,-8.54 5.41,-17.23 7.79,-25.92zm198.72 -77.97c14.28,-3.81 25.45,-16.96 31.77,-29.73 2.68,-5.42 5.1,-11.95 5.72,-18 0.31,-2.96 0.38,-8.35 -2.85,-9.89 -3.09,-1.47 -6.31,0.49 -8.63,2.49 -3.86,3.34 -7.21,8.46 -9.74,12.86 -3.6,6.26 -6.61,13 -9.2,19.74 -2.81,7.33 -5.19,14.9 -7.07,22.53zm293.41 -18.09c-24.71,-9.93 -55.61,-17.11 -81.31,-6.63 -17.94,7.32 -30.04,22.15 -35.1,40.68 -4.44,16.18 -3.28,35.2 4.68,50.14 7.76,14.61 21.02,23.24 37.9,21.53 18.73,-1.9 32.23,-18.39 41.49,-33.28 6.52,-10.46 11.97,-21.78 16.89,-33.07 5.61,-12.92 10.63,-26.13 15.45,-39.37zm-64.12 31.48c2.67,-2.97 6.41,-4.68 10.46,-4.19 3.81,0.46 7.1,2.82 8.68,6.32 2.59,5.7 0.69,11.66 -2.95,16.38 -5.39,6.95 -14.46,11.62 -22.61,14.49 -1.38,0.35 -2.78,-0.02 -3.8,-1.03 -5.74,-6.35 -11.49,-14.71 -12.96,-23.31 -1.02,-5.93 0.13,-12 5.07,-15.84 3.14,-2.36 7.21,-2.91 10.85,-1.47 3.8,1.5 6.3,4.78 7.26,8.65zm182.75 -191.82c-11.02,-1.43 -20.04,3.42 -27.56,11.27 -9.43,9.85 -16.51,24.2 -21.87,36.62 -7.34,17.04 -13.26,34.97 -18.98,52.61 -6.38,19.63 -12.5,39.34 -19.3,58.83 9.92,3.38 20.37,6.46 30.73,8.08 3.63,-17.44 8.12,-34.74 13.11,-51.84 4.83,-16.56 10.19,-32.99 15.98,-49.25 4.85,-13.62 10.04,-27.18 15.68,-40.5 2.16,-5.09 4.4,-10.16 6.77,-15.15 1.7,-3.6 3.48,-7.21 5.44,-10.67zm247.02 160.72c0.28,-1.39 0.62,-2.75 0.96,-4.11 1.26,-6.76 1.27,-15.29 -0.44,-21.97 -1.25,-4.93 -4.12,-11.23 -10.29,-10 -7.83,1.57 -14.87,12.32 -18.53,18.71 -6.42,11.22 -11.31,24.22 -14.87,36.65 -1.83,6.33 -3.37,12.79 -4.48,19.28 -0.95,5.51 -1.66,11.24 -1.68,16.83 -0.02,4.94 0.43,16.25 7.19,16.98 4.33,0.46 8.74,-4.01 11.28,-6.98 4.71,-5.53 8.69,-12.52 12.03,-18.95 4.04,-7.81 7.62,-15.93 10.87,-24.09 2.93,-7.33 5.64,-14.81 7.96,-22.35zm222.72 67.3c-4.81,-3.98 -6.68,-10.56 -5.21,-16.57 1.97,-8.05 9.19,-14.71 17.8,-12.92l0.03 0.01 0.01 0c1.64,0.55 3.24,1.15 4.54,2.3 3.49,-8.08 6.43,-16.5 8.79,-24.97 2.28,-8.08 4.13,-16.46 5.12,-24.79 0.71,-5.87 2.67,-26.03 -6.53,-27.07 -4.3,-0.48 -8.68,3.81 -11.24,6.75 -4.68,5.38 -8.65,12.25 -11.96,18.55 -4.03,7.68 -7.56,15.7 -10.77,23.76 -2.91,7.32 -5.6,14.82 -7.86,22.37l-0.96 3.16c-1.46,6.98 -1.54,15.94 0.04,22.92 1.15,5.02 3.93,12.19 10.38,10.94 3.01,-0.67 5.53,-2.44 7.82,-4.44zm148.24 -67.3c0.27,-1.39 0.61,-2.75 0.95,-4.11 1.26,-6.76 1.27,-15.29 -0.44,-21.97 -1.26,-4.93 -4.11,-11.23 -10.29,-10 -7.82,1.57 -14.87,12.32 -18.52,18.71 -6.42,11.22 -11.31,24.22 -14.88,36.65 -1.83,6.33 -3.35,12.79 -4.47,19.28 -0.95,5.51 -1.65,11.24 -1.68,16.83 -0.03,4.94 0.42,16.25 7.19,16.98 4.31,0.46 8.72,-4.01 11.27,-6.98 4.71,-5.53 8.69,-12.52 12.04,-18.95 4.03,-7.81 7.62,-15.93 10.87,-24.09 2.92,-7.33 5.64,-14.81 7.96,-22.35zm227.81 95.68c-0.77,0.25 -1.53,0.51 -2.31,0.76 -10.02,2.67 -19.14,7.57 -26.49,14.92 -5.91,5.9 -10.46,13.22 -13,21.18 -1.87,5.87 -2.86,13.03 -1.3,19.08 1.08,4.22 3.64,8.28 8.39,8.57 8.82,0.53 15.33,-11.14 18.61,-17.78 3.28,-6.66 5.93,-13.78 8.32,-20.81 2.87,-8.54 5.4,-17.23 7.78,-25.92z"/>
 </g>
</svg>
